<svg xmlns="http://www.w3.org/2000/svg" xmlns:xlink="http://www.w3.org/1999/xlink" width="699" height="350" viewBox="0 0 699 350"><defs><clipPath id="a"><path d="M460,183h44.617v34.786H460Z" transform="translate(0 0)" clip-rule="evenodd"/></clipPath><clipPath id="b"><path d="M453,169h55.2v55.96H453Z" transform="translate(-453 -169)" clip-rule="evenodd"/></clipPath><clipPath id="g"><rect width="115" height="186" fill="none"/></clipPath><clipPath id="h"><rect width="62" height="35" fill="none"/></clipPath><clipPath id="i"><path d="M460,183h25.47v19.858H460Z" transform="translate(0 0)" clip-rule="evenodd"/></clipPath><clipPath id="j"><path d="M453,169h31.513v31.945H453Z" transform="translate(-453 -169)" clip-rule="evenodd"/></clipPath><clipPath id="o"><rect width="699" height="350"/></clipPath></defs><g id="n" clip-path="url(#o)"><rect width="699" height="350" fill="#fff"/><g transform="translate(44 -732)"><g transform="translate(124 784)"><g fill="#f7f7f7" stroke="rgba(0,120,215,0.12)" stroke-width="1"><rect width="62" height="62" rx="31" stroke="none"/><rect x="0.5" y="0.5" width="61" height="61" rx="30.5" fill="none"/></g></g><g transform="translate(-327 615)" clip-path="url(#a)"><g transform="translate(454.707 172.413)" clip-path="url(#b)"><path d="M18.961,40.622H15.887v-.966a3.161,3.161,0,0,1-.89.807,3.6,3.6,0,0,1-1.79.441,4.239,4.239,0,0,1-2.886-1.116,4.88,4.88,0,0,1,.038-7.092,4.19,4.19,0,0,1,2.82-1.06,3.953,3.953,0,0,1,1.743.394,3.471,3.471,0,0,1,.965.741V26.532h3.073Zm-2.98-4.353a1.986,1.986,0,0,0-3.495-1.285,1.967,1.967,0,0,0,0,2.57,1.875,1.875,0,0,0,1.508.694,1.925,1.925,0,0,0,1.41-.572A1.906,1.906,0,0,0,15.981,36.269Zm14.506,4.353H27.414v-.966a3.163,3.163,0,0,1-.89.807,3.6,3.6,0,0,1-1.79.441,4.238,4.238,0,0,1-2.886-1.116,4.88,4.88,0,0,1,.037-7.092,4.19,4.19,0,0,1,2.82-1.06,3.953,3.953,0,0,1,1.743.394,3.47,3.47,0,0,1,.965.741v-.854h3.073Zm-2.98-4.353a1.986,1.986,0,0,0-3.495-1.285,1.967,1.967,0,0,0,0,2.57,1.875,1.875,0,0,0,1.509.694,1.924,1.924,0,0,0,1.41-.572A1.905,1.905,0,0,0,27.508,36.269Zm14.853.009a4.467,4.467,0,0,1-1.546,3.565,4.19,4.19,0,0,1-2.82,1.06,3.952,3.952,0,0,1-1.743-.394,3.474,3.474,0,0,1-.965-.741v5.206H32.213V31.916h3.073v.966a2.878,2.878,0,0,1,.89-.807,3.6,3.6,0,0,1,1.79-.441,4.239,4.239,0,0,1,2.886,1.116A4.475,4.475,0,0,1,42.36,36.278Zm-3.2-.009a1.991,1.991,0,1,0-1.986,1.979,1.875,1.875,0,0,0,1.509-.694A1.929,1.929,0,0,0,39.165,36.269Zm11.1-1.51a3.01,3.01,0,0,0-1.312-.309,1.87,1.87,0,0,0-1.968,1.238,3.537,3.537,0,0,0-.169,1.21v3.724H43.739V31.916h3.073v1.426a3.352,3.352,0,0,1,1.049-1.1,3.46,3.46,0,0,1,1.8-.45q.244,0,.6.028Z" transform="translate(-1.975 -5.948)" fill="#0d2192" fill-rule="evenodd"/><path d="M39.639,45.247h3.094L43,52.521l-1.814,1.272-1.814-1.272Z" transform="translate(-9.424 -10.51)" fill="#0d2192"/><path d="M42.061,16.231a.229.229,0,0,1,.229.229v7.814a.229.229,0,0,1-.229.229H30.778a.229.229,0,0,1-.229-.229V16.46a.229.229,0,0,1,.229-.229Z" transform="translate(-7.274 -3.437)" fill="#0d2192"/><path d="M30.55,16.231h4.342V24.5H30.55Z" transform="translate(-7.274 -3.437)" fill="rgba(255,255,255,0.08)"/><path d="M44.222,26.463a.425.425,0,0,1,.425.426v1.134a.425.425,0,0,1-.425.426H26.073a.425.425,0,0,1-.425-.426V26.889a.425.425,0,0,1,.425-.426Z" transform="translate(-6.079 -5.931)" fill="#0d2192"/><path d="M25.647,26.463h5.878v2.443H25.647Z" transform="translate(-6.079 -5.931)" fill="rgba(255,255,255,0.08)"/></g></g></g><text transform="translate(199 28)" fill="#707070" font-size="12" font-family="SegoeUI-Bold, Segoe UI" font-weight="700"><tspan x="-13.761" y="0">Dapr</tspan><tspan x="-51.428" y="16">Placement Service</tspan></text><g transform="translate(44 -588)"><g transform="translate(124 784)"><g fill="#f7f7f7" stroke="rgba(0,120,215,0.12)" stroke-width="1"><rect width="62" height="62" rx="31" stroke="none"/><rect x="0.5" y="0.5" width="61" height="61" rx="30.5" fill="none"/></g></g><g transform="translate(-327 615)" clip-path="url(#a)"><g transform="translate(454.707 172.413)" clip-path="url(#b)"><path d="M18.961,40.622H15.887v-.966a3.161,3.161,0,0,1-.89.807,3.6,3.6,0,0,1-1.79.441,4.239,4.239,0,0,1-2.886-1.116,4.88,4.88,0,0,1,.038-7.092,4.19,4.19,0,0,1,2.82-1.06,3.953,3.953,0,0,1,1.743.394,3.471,3.471,0,0,1,.965.741V26.532h3.073Zm-2.98-4.353a1.986,1.986,0,0,0-3.495-1.285,1.967,1.967,0,0,0,0,2.57,1.875,1.875,0,0,0,1.508.694,1.925,1.925,0,0,0,1.41-.572A1.906,1.906,0,0,0,15.981,36.269Zm14.506,4.353H27.414v-.966a3.163,3.163,0,0,1-.89.807,3.6,3.6,0,0,1-1.79.441,4.238,4.238,0,0,1-2.886-1.116,4.88,4.88,0,0,1,.037-7.092,4.19,4.19,0,0,1,2.82-1.06,3.953,3.953,0,0,1,1.743.394,3.47,3.47,0,0,1,.965.741v-.854h3.073Zm-2.98-4.353a1.986,1.986,0,0,0-3.495-1.285,1.967,1.967,0,0,0,0,2.57,1.875,1.875,0,0,0,1.509.694,1.924,1.924,0,0,0,1.41-.572A1.905,1.905,0,0,0,27.508,36.269Zm14.853.009a4.467,4.467,0,0,1-1.546,3.565,4.19,4.19,0,0,1-2.82,1.06,3.952,3.952,0,0,1-1.743-.394,3.474,3.474,0,0,1-.965-.741v5.206H32.213V31.916h3.073v.966a2.878,2.878,0,0,1,.89-.807,3.6,3.6,0,0,1,1.79-.441,4.239,4.239,0,0,1,2.886,1.116A4.475,4.475,0,0,1,42.36,36.278Zm-3.2-.009a1.991,1.991,0,1,0-1.986,1.979,1.875,1.875,0,0,0,1.509-.694A1.929,1.929,0,0,0,39.165,36.269Zm11.1-1.51a3.01,3.01,0,0,0-1.312-.309,1.87,1.87,0,0,0-1.968,1.238,3.537,3.537,0,0,0-.169,1.21v3.724H43.739V31.916h3.073v1.426a3.352,3.352,0,0,1,1.049-1.1,3.46,3.46,0,0,1,1.8-.45q.244,0,.6.028Z" transform="translate(-1.975 -5.948)" fill="#0d2192" fill-rule="evenodd"/><path d="M39.639,45.247h3.094L43,52.521l-1.814,1.272-1.814-1.272Z" transform="translate(-9.424 -10.51)" fill="#0d2192"/><path d="M42.061,16.231a.229.229,0,0,1,.229.229v7.814a.229.229,0,0,1-.229.229H30.778a.229.229,0,0,1-.229-.229V16.46a.229.229,0,0,1,.229-.229Z" transform="translate(-7.274 -3.437)" fill="#0d2192"/><path d="M30.55,16.231h4.342V24.5H30.55Z" transform="translate(-7.274 -3.437)" fill="rgba(255,255,255,0.08)"/><path d="M44.222,26.463a.425.425,0,0,1,.425.426v1.134a.425.425,0,0,1-.425.426H26.073a.425.425,0,0,1-.425-.426V26.889a.425.425,0,0,1,.425-.426Z" transform="translate(-6.079 -5.931)" fill="#0d2192"/><path d="M25.647,26.463h5.878v2.443H25.647Z" transform="translate(-6.079 -5.931)" fill="rgba(255,255,255,0.08)"/></g></g></g><g transform="translate(22 196)"><g fill="#f7f7f7" stroke="rgba(0,120,215,0.12)" stroke-width="1"><rect width="62" height="62" rx="31" stroke="none"/><rect x="0.5" y="0.5" width="61" height="61" rx="30.5" fill="none"/></g></g><path d="M169,444.344l-1.788-1.6,9.75-12.27-9.446-12.708,1.827-1.535,10.628,14.293Z" transform="translate(-104.297 -203)" fill="#0078d4" fill-rule="evenodd"/><path d="M139.843,444.336l-10.628-14.284,10.978-13.822,1.781,1.594-9.75,12.277,9.446,12.7Z" transform="translate(-99 -203)" fill="#0078d4" fill-rule="evenodd"/><path d="M154.512,436.8a4.289,4.289,0,1,0-4.289-4.289A4.289,4.289,0,0,0,154.512,436.8Z" transform="translate(-101.543 -204.623)" fill="#50e6ff" fill-rule="evenodd"/><path d="M164.936,430l-3.282-.377-.1-.329a7.68,7.68,0,0,0-.776-1.782l-.179-.306,1.755-2.176a.4.4,0,0,0,.024-.522l-1.7-1.67a.4.4,0,0,0-.531.024l-2.269,1.767-.3-.161a8.213,8.213,0,0,0-1.763-.666l-.351-.089-.367-3.107a.4.4,0,0,0-.36-.386h-2.4a.4.4,0,0,0-.359.386l-.384,3.22-.318.1a7.525,7.525,0,0,0-1.649.747l-.31.184-2.441-1.894a.415.415,0,0,0-.531-.024l-1.7,1.67a.39.39,0,0,0,.025.522l2.016,2.513-.147.3A7.848,7.848,0,0,0,146,429.31l-.1.33-3.282.377a.4.4,0,0,0-.392.353v2.361a.4.4,0,0,0,.392.353l3.289.378.1.329a7.865,7.865,0,0,0,.546,1.341l.156.3-2.033,2.529a.4.4,0,0,0-.025.522l1.7,1.67a.4.4,0,0,0,.531-.024l2.473-1.926.31.184a7.71,7.71,0,0,0,1.584.707l.318.1.367,3.091a.4.4,0,0,0,.36.386h2.4a.4.4,0,0,0,.36-.386l.351-2.954.35-.089a8.072,8.072,0,0,0,1.763-.658l.3-.152,2.237,1.742a.415.415,0,0,0,.531.024l1.7-1.67a.381.381,0,0,0-.025-.522l-1.706-2.12.188-.3a7.6,7.6,0,0,0,.8-1.791l.1-.329,3.3-.378a.4.4,0,0,0,.392-.353V430.37A.4.4,0,0,0,164.936,430Zm-11.167,6.816a5.307,5.307,0,1,1,5.4-5.307A5.357,5.357,0,0,1,153.769,436.816Z" transform="translate(-100.814 -203.557)" fill="#0078d7" fill-rule="evenodd"/><text transform="translate(53 188)" fill="#707070" font-size="12" font-family="SegoeUI-Bold, Segoe UI" font-weight="700"><tspan x="-11.66" y="0">App</tspan></text><g transform="translate(94 217)"><line x1="62.865" transform="translate(0 4.527)" fill="none" stroke="#0078d7" stroke-width="1"/><path d="M9,9.13H0L4.5,0,9,9.13Z" transform="translate(64) rotate(90)" fill="#0078d7"/></g><g transform="translate(94 228)"><line x2="62.865" transform="translate(1.135 4.527)" fill="none" stroke="#737373" stroke-width="1"/><path d="M9,0H0L4.5,9.13,9,0Z" transform="translate(9.13) rotate(90)" fill="#737373"/></g><g transform="translate(204 146.61) rotate(90)"><line x1="38.254" transform="translate(0 4.527)" fill="none" stroke="#0078d7" stroke-width="1"/><path d="M9,9.13H0L4.5,0,9,9.13Z" transform="translate(39.39) rotate(90)" fill="#0078d7"/></g><g transform="translate(195 184.785) rotate(-90)"><line x1="59.649" transform="translate(0 4.473)" fill="none" stroke="#0078d7" stroke-width="1"/><path d="M9,0H0L4.5,9.13,9,0Z" transform="translate(51.654 9) rotate(-90)" fill="#0078d7"/></g><text transform="translate(208.923 155.839)" fill="#0078d4" font-size="10" font-family="SegoeUI-Bold, Segoe UI" font-weight="700"><tspan x="0" y="0">Get Actor location</tspan></text><g transform="translate(44 -588)"><g transform="translate(124 784)"><g fill="#f7f7f7" stroke="rgba(0,120,215,0.12)" stroke-width="1"><rect width="62" height="62" rx="31" stroke="none"/><rect x="0.5" y="0.5" width="61" height="61" rx="30.5" fill="none"/></g></g><g transform="translate(-327 615)" clip-path="url(#a)"><g transform="translate(454.707 172.413)" clip-path="url(#b)"><path d="M18.961,40.622H15.887v-.966a3.161,3.161,0,0,1-.89.807,3.6,3.6,0,0,1-1.79.441,4.239,4.239,0,0,1-2.886-1.116,4.88,4.88,0,0,1,.038-7.092,4.19,4.19,0,0,1,2.82-1.06,3.953,3.953,0,0,1,1.743.394,3.471,3.471,0,0,1,.965.741V26.532h3.073Zm-2.98-4.353a1.986,1.986,0,0,0-3.495-1.285,1.967,1.967,0,0,0,0,2.57,1.875,1.875,0,0,0,1.508.694,1.925,1.925,0,0,0,1.41-.572A1.906,1.906,0,0,0,15.981,36.269Zm14.506,4.353H27.414v-.966a3.163,3.163,0,0,1-.89.807,3.6,3.6,0,0,1-1.79.441,4.238,4.238,0,0,1-2.886-1.116,4.88,4.88,0,0,1,.037-7.092,4.19,4.19,0,0,1,2.82-1.06,3.953,3.953,0,0,1,1.743.394,3.47,3.47,0,0,1,.965.741v-.854h3.073Zm-2.98-4.353a1.986,1.986,0,0,0-3.495-1.285,1.967,1.967,0,0,0,0,2.57,1.875,1.875,0,0,0,1.509.694,1.924,1.924,0,0,0,1.41-.572A1.905,1.905,0,0,0,27.508,36.269Zm14.853.009a4.467,4.467,0,0,1-1.546,3.565,4.19,4.19,0,0,1-2.82,1.06,3.952,3.952,0,0,1-1.743-.394,3.474,3.474,0,0,1-.965-.741v5.206H32.213V31.916h3.073v.966a2.878,2.878,0,0,1,.89-.807,3.6,3.6,0,0,1,1.79-.441,4.239,4.239,0,0,1,2.886,1.116A4.475,4.475,0,0,1,42.36,36.278Zm-3.2-.009a1.991,1.991,0,1,0-1.986,1.979,1.875,1.875,0,0,0,1.509-.694A1.929,1.929,0,0,0,39.165,36.269Zm11.1-1.51a3.01,3.01,0,0,0-1.312-.309,1.87,1.87,0,0,0-1.968,1.238,3.537,3.537,0,0,0-.169,1.21v3.724H43.739V31.916h3.073v1.426a3.352,3.352,0,0,1,1.049-1.1,3.46,3.46,0,0,1,1.8-.45q.244,0,.6.028Z" transform="translate(-1.975 -5.948)" fill="#0d2192" fill-rule="evenodd"/><path d="M39.639,45.247h3.094L43,52.521l-1.814,1.272-1.814-1.272Z" transform="translate(-9.424 -10.51)" fill="#0d2192"/><path d="M42.061,16.231a.229.229,0,0,1,.229.229v7.814a.229.229,0,0,1-.229.229H30.778a.229.229,0,0,1-.229-.229V16.46a.229.229,0,0,1,.229-.229Z" transform="translate(-7.274 -3.437)" fill="#0d2192"/><path d="M30.55,16.231h4.342V24.5H30.55Z" transform="translate(-7.274 -3.437)" fill="rgba(255,255,255,0.08)"/><path d="M44.222,26.463a.425.425,0,0,1,.425.426v1.134a.425.425,0,0,1-.425.426H26.073a.425.425,0,0,1-.425-.426V26.889a.425.425,0,0,1,.425-.426Z" transform="translate(-6.079 -5.931)" fill="#0d2192"/><path d="M25.647,26.463h5.878v2.443H25.647Z" transform="translate(-6.079 -5.931)" fill="rgba(255,255,255,0.08)"/></g></g></g><path d="M-21.319,0h-2.062l-.6-1.869h-2.988L-27.56,0H-29.61l3.059-8.4h2.244Zm-3.094-3.322-.9-2.824a3.68,3.68,0,0,1-.141-.756H-25.5a3.2,3.2,0,0,1-.146.732l-.914,2.848Zm8.508,3.105a3.661,3.661,0,0,1-1.811.363,3.062,3.062,0,0,1-2.238-.838,2.894,2.894,0,0,1-.855-2.162,3.188,3.188,0,0,1,.917-2.411,3.389,3.389,0,0,1,2.452-.882,3.146,3.146,0,0,1,1.535.281v1.57A2.111,2.111,0,0,0-17.2-4.729a1.706,1.706,0,0,0-1.263.466,1.738,1.738,0,0,0-.466,1.286,1.71,1.71,0,0,0,.445,1.251,1.637,1.637,0,0,0,1.225.454,2.444,2.444,0,0,0,1.354-.434Zm4.84.146A2.737,2.737,0,0,1-12.3.146q-1.957,0-1.957-2.033V-4.635h-.973V-6h.973V-7.295l1.846-.527V-6h1.348v1.365h-1.348v2.426q0,.938.744.938a1.255,1.255,0,0,0,.6-.17ZM-7.21.146A3.225,3.225,0,0,1-9.568-.694a3.048,3.048,0,0,1-.858-2.282,3.048,3.048,0,0,1,.891-2.329,3.365,3.365,0,0,1,2.408-.841,3.186,3.186,0,0,1,2.344.841,2.989,2.989,0,0,1,.85,2.224A3.173,3.173,0,0,1-4.811-.721,3.261,3.261,0,0,1-7.21.146Zm.047-4.875a1.235,1.235,0,0,0-1.02.451A1.99,1.99,0,0,0-8.546-3q0,1.729,1.395,1.729,1.33,0,1.33-1.775Q-5.821-4.729-7.163-4.729Zm8.344.4A1.606,1.606,0,0,0,.4-4.512a1.123,1.123,0,0,0-.943.442,1.93,1.93,0,0,0-.34,1.2V0H-2.733V-6H-.882v1.113h.023A1.6,1.6,0,0,1,.724-6.105a1.192,1.192,0,0,1,.457.07ZM7.427-2.895V0H5.534V-8.4H8.5q3.176,0,3.176,2.678a2.569,2.569,0,0,1-.911,2.048,3.61,3.61,0,0,1-2.435.782Zm0-4.055V-4.33h.744q1.512,0,1.512-1.324,0-1.295-1.512-1.295Zm7.8,7.1a3.225,3.225,0,0,1-2.358-.841,3.048,3.048,0,0,1-.858-2.282A3.048,3.048,0,0,1,12.9-5.306a3.365,3.365,0,0,1,2.408-.841,3.186,3.186,0,0,1,2.344.841,2.989,2.989,0,0,1,.85,2.224,3.173,3.173,0,0,1-.876,2.361A3.261,3.261,0,0,1,15.226.146Zm.047-4.875a1.235,1.235,0,0,0-1.02.451A1.99,1.99,0,0,0,13.89-3q0,1.729,1.395,1.729,1.33,0,1.33-1.775Q16.614-4.729,15.272-4.729ZM22.562.146A3.225,3.225,0,0,1,20.2-.694a3.048,3.048,0,0,1-.858-2.282,3.048,3.048,0,0,1,.891-2.329,3.365,3.365,0,0,1,2.408-.841,3.186,3.186,0,0,1,2.344.841,2.989,2.989,0,0,1,.85,2.224,3.173,3.173,0,0,1-.876,2.361A3.261,3.261,0,0,1,22.562.146Zm.047-4.875a1.235,1.235,0,0,0-1.02.451A1.99,1.99,0,0,0,21.226-3q0,1.729,1.395,1.729,1.33,0,1.33-1.775Q23.95-4.729,22.608-4.729ZM28.89,0H27.038V-8.883H28.89ZM-65.441,6.4a9.385,9.385,0,0,0-.873.984,6.648,6.648,0,0,0-.662,1.051A5.525,5.525,0,0,0-67.4,9.561a4.921,4.921,0,0,0-.148,1.217,4.933,4.933,0,0,0,.041.631,4.778,4.778,0,0,0,.123.625,5.074,5.074,0,0,0,.2.6,3.718,3.718,0,0,0,.27.539h-.551a3.714,3.714,0,0,1-.287-.549,4.6,4.6,0,0,1-.205-.6,4.778,4.778,0,0,1-.123-.613,4.565,4.565,0,0,1-.041-.6,5.429,5.429,0,0,1,.145-1.275,5.552,5.552,0,0,1,.41-1.143,6.056,6.056,0,0,1,.646-1.037,9.067,9.067,0,0,1,.854-.955Zm2.633,2.395a1.47,1.47,0,0,0-.4-.244,1.291,1.291,0,0,0-.514-.1,1.213,1.213,0,0,0-.486.094,1.342,1.342,0,0,0-.385.25,1.622,1.622,0,0,0-.289.359,2.4,2.4,0,0,0-.2.422,2.6,2.6,0,0,0-.115.436,2.4,2.4,0,0,0-.037.4,1.276,1.276,0,0,0,.246.848.836.836,0,0,0,.672.289,1.479,1.479,0,0,0,.535-.107,2.576,2.576,0,0,0,.523-.275l-.137.641a2.741,2.741,0,0,1-.506.213,1.833,1.833,0,0,1-.533.076,1.515,1.515,0,0,1-.639-.125,1.251,1.251,0,0,1-.451-.344,1.473,1.473,0,0,1-.27-.518,2.236,2.236,0,0,1-.09-.646,3.157,3.157,0,0,1,.066-.646,2.784,2.784,0,0,1,.2-.6,2.609,2.609,0,0,1,.322-.525,2.078,2.078,0,0,1,.439-.416A2.086,2.086,0,0,1-64.3,8a2.113,2.113,0,0,1,.66-.1,2.106,2.106,0,0,1,.32.023,1.9,1.9,0,0,1,.277.063,1.869,1.869,0,0,1,.223.084.914.914,0,0,1,.156.088Zm4.09.688a3.329,3.329,0,0,1-.15,1.008,2.577,2.577,0,0,1-.434.834,2.1,2.1,0,0,1-.687.566,1.957,1.957,0,0,1-.912.209,1.665,1.665,0,0,1-.619-.109,1.288,1.288,0,0,1-.469-.314,1.393,1.393,0,0,1-.3-.5,1.956,1.956,0,0,1-.1-.658,3.26,3.26,0,0,1,.158-1.029,2.6,2.6,0,0,1,.445-.832A2.08,2.08,0,0,1-61.1,8.1a1.943,1.943,0,0,1,.885-.2,1.654,1.654,0,0,1,.615.109,1.307,1.307,0,0,1,.471.314,1.424,1.424,0,0,1,.3.5A1.891,1.891,0,0,1-58.719,9.48Zm-.656.031a1.493,1.493,0,0,0-.062-.451.96.96,0,0,0-.176-.332.763.763,0,0,0-.273-.207.864.864,0,0,0-.359-.072,1.136,1.136,0,0,0-.621.176,1.572,1.572,0,0,0-.469.463,2.3,2.3,0,0,0-.295.652,2.73,2.73,0,0,0-.1.748,1.494,1.494,0,0,0,.061.439,1,1,0,0,0,.172.336.742.742,0,0,0,.273.213.868.868,0,0,0,.365.074,1.152,1.152,0,0,0,.625-.174,1.55,1.55,0,0,0,.469-.461,2.253,2.253,0,0,0,.293-.654A2.8,2.8,0,0,0-59.375,9.512ZM-54.328,9a1.273,1.273,0,0,1-.014.16q-.014.1-.035.219l-.043.232q-.021.115-.041.2L-54.926,12h-.648l.488-2.344q.016-.063.031-.145t.027-.164q.012-.082.02-.15A1,1,0,0,0-55,9.09a.712.712,0,0,0-.143-.469.519.519,0,0,0-.424-.172.986.986,0,0,0-.512.152,2.105,2.105,0,0,0-.469.387,2.637,2.637,0,0,0-.369.516,1.976,1.976,0,0,0-.209.543L-57.543,12h-.648l.617-2.855q.031-.152.063-.318t.059-.32q.027-.154.047-.287T-57.375,8h.625q-.02.152-.047.318t-.047.307q-.023.164-.051.32h.016a3.3,3.3,0,0,1,.3-.4,2.265,2.265,0,0,1,.359-.332,1.707,1.707,0,0,1,.41-.225,1.275,1.275,0,0,1,.455-.082,1.181,1.181,0,0,1,.457.08.856.856,0,0,1,.318.225.915.915,0,0,1,.188.348A1.554,1.554,0,0,1-54.328,9Zm3.105-.457H-52.23l-.449,2.121q-.023.121-.047.262a1.446,1.446,0,0,0-.023.227.4.4,0,0,0,.088.287.382.382,0,0,0,.279.088.614.614,0,0,0,.121-.016q.074-.016.152-.039t.154-.053l.135-.053-.121.563a1.894,1.894,0,0,1-.311.1,1.439,1.439,0,0,1-.33.041,1.117,1.117,0,0,1-.379-.057.649.649,0,0,1-.256-.162.628.628,0,0,1-.145-.256,1.179,1.179,0,0,1-.045-.338,1.894,1.894,0,0,1,.021-.264,2.734,2.734,0,0,1,.053-.275l.461-2.176h-.664L-53.414,8h.656l.207-.977a1.2,1.2,0,0,1,.119-.037l.227-.066.227-.068.115-.035L-52.109,8H-51.1Zm3.426,2.176q-.031.148-.061.334t-.051.367q-.021.182-.035.338t-.014.242h-.664q0-.078.012-.187t.021-.227q.014-.117.027-.23t.029-.2h-.016q-.121.191-.246.361a1.739,1.739,0,0,1-.277.3,1.214,1.214,0,0,1-.34.2,1.2,1.2,0,0,1-.441.074A1.193,1.193,0,0,1-50.33,12a1,1,0,0,1-.373-.279,1.287,1.287,0,0,1-.24-.465,2.266,2.266,0,0,1-.084-.65,3.259,3.259,0,0,1,.047-.516,3.155,3.155,0,0,1,.158-.59,3,3,0,0,1,.3-.588,2.233,2.233,0,0,1,.461-.514,2.2,2.2,0,0,1,.65-.363,2.526,2.526,0,0,1,.867-.137,4.61,4.61,0,0,1,.645.047q.332.047.66.113Zm-.184-2.191q-.137-.031-.32-.055a2.723,2.723,0,0,0-.344-.023,1.559,1.559,0,0,0-.6.107,1.539,1.539,0,0,0-.451.281,1.656,1.656,0,0,0-.322.4,2.482,2.482,0,0,0-.209.463,2.725,2.725,0,0,0-.111.467,2.955,2.955,0,0,0-.033.418,1.872,1.872,0,0,0,.039.4.874.874,0,0,0,.123.3.578.578,0,0,0,.215.193.662.662,0,0,0,.311.068.846.846,0,0,0,.365-.08A1.266,1.266,0,0,0-49,11.254a1.78,1.78,0,0,0,.27-.316,3.113,3.113,0,0,0,.219-.381,3.257,3.257,0,0,0,.166-.41q.068-.209.111-.4Zm2.609,3.457a1.5,1.5,0,0,1-.221.051,1.555,1.555,0,0,1-.244.02.8.8,0,0,1-.59-.2.719.719,0,0,1-.2-.529,1.614,1.614,0,0,1,.02-.23q.02-.133.063-.328L-45.957,8h.648l-.586,2.785q-.035.164-.049.254a1.039,1.039,0,0,0-.014.152.322.322,0,0,0,.088.244.394.394,0,0,0,.279.084,1.183,1.183,0,0,0,.178-.012.787.787,0,0,0,.143-.035Zm.457-5.41a.42.42,0,0,1-.119.3A.391.391,0,0,1-45.328,7a.415.415,0,0,1-.3-.123.405.405,0,0,1-.127-.3.375.375,0,0,1,.127-.293.434.434,0,0,1,.3-.113.41.41,0,0,1,.293.115A.385.385,0,0,1-44.914,6.574ZM-40.84,9a1.273,1.273,0,0,1-.014.16q-.014.1-.035.219l-.043.232q-.021.115-.041.2L-41.437,12h-.648l.488-2.344q.016-.063.031-.145t.027-.164q.012-.082.02-.15a1,1,0,0,0,.008-.107.712.712,0,0,0-.143-.469.519.519,0,0,0-.424-.172.986.986,0,0,0-.512.152,2.105,2.105,0,0,0-.469.387,2.637,2.637,0,0,0-.369.516,1.976,1.976,0,0,0-.209.543L-44.055,12H-44.7l.617-2.855q.031-.152.063-.318t.059-.32q.027-.154.047-.287T-43.887,8h.625q-.02.152-.047.318t-.047.307q-.023.164-.051.32h.016a3.3,3.3,0,0,1,.3-.4,2.265,2.265,0,0,1,.359-.332,1.707,1.707,0,0,1,.41-.225,1.275,1.275,0,0,1,.455-.082,1.181,1.181,0,0,1,.457.08.856.856,0,0,1,.318.225.915.915,0,0,1,.188.348A1.554,1.554,0,0,1-40.84,9Zm3.242-.3a1.665,1.665,0,0,0-.395-.184,1.423,1.423,0,0,0-.437-.07A.863.863,0,0,0-39,8.617a.551.551,0,0,0-.2.445.558.558,0,0,0,.037.207.625.625,0,0,0,.109.178.993.993,0,0,0,.184.162q.111.078.256.168a2.014,2.014,0,0,1,.631.521,1,1,0,0,1,.193.6,1.218,1.218,0,0,1-.084.443,1,1,0,0,1-.268.383,1.372,1.372,0,0,1-.475.268,2.166,2.166,0,0,1-.709.1,2.349,2.349,0,0,1-.258-.016,2.731,2.731,0,0,1-.283-.047,2.471,2.471,0,0,1-.273-.076,1.2,1.2,0,0,1-.229-.1l.129-.609a1.346,1.346,0,0,0,.193.109,2,2,0,0,0,.25.1,2.336,2.336,0,0,0,.281.07,1.583,1.583,0,0,0,.291.027.917.917,0,0,0,.584-.156.527.527,0,0,0,.193-.434.578.578,0,0,0-.029-.187.526.526,0,0,0-.1-.172,1.149,1.149,0,0,0-.2-.174q-.121-.088-.3-.2a1.973,1.973,0,0,1-.588-.506,1,1,0,0,1-.189-.6,1.216,1.216,0,0,1,.09-.463,1.12,1.12,0,0,1,.268-.391A1.3,1.3,0,0,1-39.051,8a1.78,1.78,0,0,1,.629-.1,2.509,2.509,0,0,1,.533.055,1.893,1.893,0,0,1,.428.141Zm4.238,3.3H-33.9l-.633-4h.648l.352,2.52q.012.074.021.168t.02.191q.01.1.014.191t0,.168h.016l.072-.16q.041-.09.092-.186l.1-.193q.053-.1.1-.18L-31.664,8h.73Zm3.7-.016a1.5,1.5,0,0,1-.221.051,1.555,1.555,0,0,1-.244.02.8.8,0,0,1-.59-.2.719.719,0,0,1-.2-.529,1.614,1.614,0,0,1,.02-.23q.02-.133.063-.328L-30.246,8h.648l-.586,2.785q-.035.164-.049.254a1.039,1.039,0,0,0-.014.152.322.322,0,0,0,.088.244.394.394,0,0,0,.279.084,1.183,1.183,0,0,0,.178-.012.787.787,0,0,0,.143-.035Zm.457-5.41a.42.42,0,0,1-.119.3A.391.391,0,0,1-29.617,7a.415.415,0,0,1-.3-.123.405.405,0,0,1-.127-.3.375.375,0,0,1,.127-.293.434.434,0,0,1,.3-.113.41.41,0,0,1,.293.115A.385.385,0,0,1-29.2,6.574Zm2.98,2.105h-.016a1.153,1.153,0,0,0-.205-.092.752.752,0,0,0-.252-.045.74.74,0,0,0-.434.146,1.594,1.594,0,0,0-.377.387,2.774,2.774,0,0,0-.3.549,3.748,3.748,0,0,0-.2.633L-28.375,12h-.641l.563-2.656q.035-.164.07-.344t.064-.359q.029-.18.053-.344t.035-.3h.633q-.012.117-.027.248t-.031.254q-.016.123-.031.223t-.023.154h.016a4.312,4.312,0,0,1,.254-.4,1.859,1.859,0,0,1,.271-.307,1.151,1.151,0,0,1,.3-.2.855.855,0,0,1,.348-.07,1.1,1.1,0,0,1,.217.021q.107.021.193.045Zm2.543-.137h-1.008l-.449,2.121q-.023.121-.047.262a1.446,1.446,0,0,0-.023.227.4.4,0,0,0,.088.287.382.382,0,0,0,.279.088.614.614,0,0,0,.121-.016q.074-.016.152-.039t.154-.053l.135-.053-.121.563a1.894,1.894,0,0,1-.311.1,1.439,1.439,0,0,1-.33.041,1.117,1.117,0,0,1-.379-.057.649.649,0,0,1-.256-.162.628.628,0,0,1-.145-.256,1.179,1.179,0,0,1-.045-.338,1.894,1.894,0,0,1,.021-.264,2.733,2.733,0,0,1,.053-.275l.461-2.176h-.664L-25.871,8h.656l.207-.977a1.2,1.2,0,0,1,.119-.037l.227-.066.227-.068.115-.035L-24.566,8h1.008Zm3.523,2.32q-.035.152-.064.316l-.057.316q-.027.152-.047.285t-.031.219h-.625q.02-.152.045-.318t.049-.307q.027-.164.051-.32h-.016a3.3,3.3,0,0,1-.3.4,2.265,2.265,0,0,1-.359.332,1.707,1.707,0,0,1-.41.225,1.264,1.264,0,0,1-.451.082,1.173,1.173,0,0,1-.451-.08.871.871,0,0,1-.322-.225.943.943,0,0,1-.193-.348,1.494,1.494,0,0,1-.064-.453,1.1,1.1,0,0,1,.016-.152q.016-.1.035-.219t.045-.232q.025-.115.041-.2L-22.8,8h.648l-.5,2.344q-.016.063-.031.145t-.029.164q-.014.082-.021.15a1,1,0,0,0-.008.107.714.714,0,0,0,.143.467.521.521,0,0,0,.428.174.9.9,0,0,0,.344-.07,1.564,1.564,0,0,0,.334-.189,2.1,2.1,0,0,0,.307-.277,2.705,2.705,0,0,0,.262-.336,2.439,2.439,0,0,0,.2-.365,2.014,2.014,0,0,0,.121-.359L-20.187,8h.645Zm4.367-.145q-.031.148-.061.334t-.051.367q-.021.182-.035.338t-.014.242h-.664q0-.078.012-.187t.021-.227q.014-.117.027-.23t.029-.2h-.016q-.121.191-.246.361a1.739,1.739,0,0,1-.277.3,1.214,1.214,0,0,1-.34.2,1.2,1.2,0,0,1-.441.074A1.193,1.193,0,0,1-18.322,12a1,1,0,0,1-.373-.279,1.287,1.287,0,0,1-.24-.465,2.266,2.266,0,0,1-.084-.65,3.259,3.259,0,0,1,.047-.516,3.155,3.155,0,0,1,.158-.59,3,3,0,0,1,.3-.588,2.233,2.233,0,0,1,.461-.514,2.2,2.2,0,0,1,.65-.363,2.526,2.526,0,0,1,.867-.137,4.61,4.61,0,0,1,.645.047q.332.047.66.113Zm-.184-2.191q-.137-.031-.32-.055a2.723,2.723,0,0,0-.344-.023,1.559,1.559,0,0,0-.6.107,1.538,1.538,0,0,0-.451.281,1.656,1.656,0,0,0-.322.4,2.482,2.482,0,0,0-.209.463,2.724,2.724,0,0,0-.111.467,2.955,2.955,0,0,0-.033.418,1.872,1.872,0,0,0,.039.4.874.874,0,0,0,.123.3.578.578,0,0,0,.215.193.662.662,0,0,0,.311.068.846.846,0,0,0,.365-.08,1.266,1.266,0,0,0,.318-.217,1.78,1.78,0,0,0,.27-.316,3.113,3.113,0,0,0,.219-.381,3.257,3.257,0,0,0,.166-.41q.068-.209.111-.4Zm2.609,3.457a1.5,1.5,0,0,1-.221.051,1.555,1.555,0,0,1-.244.02.8.8,0,0,1-.59-.2.719.719,0,0,1-.2-.529,1.614,1.614,0,0,1,.02-.23q.02-.133.063-.328l1-4.7h.648l-1,4.711q-.035.164-.049.254a1.039,1.039,0,0,0-.014.152.322.322,0,0,0,.088.244.394.394,0,0,0,.279.084,1.183,1.183,0,0,0,.178-.012.787.787,0,0,0,.143-.035ZM-7.887,8.7a1.665,1.665,0,0,0-.395-.184,1.423,1.423,0,0,0-.437-.07.863.863,0,0,0-.568.168.551.551,0,0,0-.2.445.558.558,0,0,0,.037.207.625.625,0,0,0,.109.178.993.993,0,0,0,.184.162q.111.078.256.168a2.014,2.014,0,0,1,.631.521,1,1,0,0,1,.193.6,1.218,1.218,0,0,1-.084.443,1,1,0,0,1-.268.383A1.372,1.372,0,0,1-8.9,12a2.166,2.166,0,0,1-.709.1,2.349,2.349,0,0,1-.258-.016,2.731,2.731,0,0,1-.283-.047,2.471,2.471,0,0,1-.273-.076,1.2,1.2,0,0,1-.229-.1l.129-.609a1.346,1.346,0,0,0,.193.109,2,2,0,0,0,.25.1,2.336,2.336,0,0,0,.281.07,1.583,1.583,0,0,0,.291.027.917.917,0,0,0,.584-.156.527.527,0,0,0,.193-.434.578.578,0,0,0-.029-.187.526.526,0,0,0-.1-.172,1.149,1.149,0,0,0-.2-.174q-.121-.088-.3-.2a1.973,1.973,0,0,1-.588-.506,1,1,0,0,1-.189-.6,1.216,1.216,0,0,1,.09-.463,1.12,1.12,0,0,1,.268-.391A1.3,1.3,0,0,1-9.34,8a1.78,1.78,0,0,1,.629-.1,2.509,2.509,0,0,1,.533.055A1.893,1.893,0,0,1-7.75,8.1Zm4.07.234a1.191,1.191,0,0,1-.141.576,1.165,1.165,0,0,1-.465.445,2.792,2.792,0,0,1-.855.287,7.339,7.339,0,0,1-1.312.105.5.5,0,0,0-.008.09v.078a1.328,1.328,0,0,0,.059.4.9.9,0,0,0,.182.328.857.857,0,0,0,.316.223,1.17,1.17,0,0,0,.459.082,1.948,1.948,0,0,0,.592-.1,2.543,2.543,0,0,0,.615-.295l-.121.633A2.539,2.539,0,0,1-5.008,12a2.2,2.2,0,0,1-.664.094,1.8,1.8,0,0,1-.744-.137A1.31,1.31,0,0,1-6.9,11.6a1.424,1.424,0,0,1-.268-.527,2.358,2.358,0,0,1-.082-.627,2.9,2.9,0,0,1,.078-.678,2.76,2.76,0,0,1,.221-.607,2.574,2.574,0,0,1,.342-.514,2.222,2.222,0,0,1,.441-.4,2.046,2.046,0,0,1,.52-.254,1.852,1.852,0,0,1,.574-.09,1.659,1.659,0,0,1,.545.082,1.139,1.139,0,0,1,.395.225.958.958,0,0,1,.24.33A.983.983,0,0,1-3.816,8.938Zm-.652.031a.452.452,0,0,0-.182-.383.783.783,0,0,0-.482-.137,1.082,1.082,0,0,0-.461.1A1.492,1.492,0,0,0-6,8.838a1.78,1.78,0,0,0-.324.434,2.019,2.019,0,0,0-.2.545,6.752,6.752,0,0,0,.949-.057,2.463,2.463,0,0,0,.637-.166.856.856,0,0,0,.359-.268A.6.6,0,0,0-4.469,8.969ZM.422,9a1.273,1.273,0,0,1-.014.16q-.014.1-.035.219L.33,9.611q-.021.115-.041.2L-.176,12H-.824l.488-2.344q.016-.063.031-.145t.027-.164q.012-.082.02-.15A1,1,0,0,0-.25,9.09a.712.712,0,0,0-.143-.469.519.519,0,0,0-.424-.172.986.986,0,0,0-.512.152,2.105,2.105,0,0,0-.469.387,2.637,2.637,0,0,0-.369.516,1.976,1.976,0,0,0-.209.543L-2.793,12h-.648l.617-2.855q.031-.152.063-.318t.059-.32q.027-.154.047-.287T-2.625,8H-2q-.02.152-.047.318t-.047.307q-.023.164-.051.32h.016a3.3,3.3,0,0,1,.3-.4,2.265,2.265,0,0,1,.359-.332,1.707,1.707,0,0,1,.41-.225A1.275,1.275,0,0,1-.6,7.9a1.181,1.181,0,0,1,.457.08.856.856,0,0,1,.318.225.915.915,0,0,1,.188.348A1.554,1.554,0,0,1,.422,9Zm3.242-.3A1.665,1.665,0,0,0,3.27,8.52a1.423,1.423,0,0,0-.437-.07.863.863,0,0,0-.568.168.551.551,0,0,0-.2.445A.558.558,0,0,0,2.1,9.27a.625.625,0,0,0,.109.178.993.993,0,0,0,.184.162q.111.078.256.168a2.014,2.014,0,0,1,.631.521,1,1,0,0,1,.193.6,1.218,1.218,0,0,1-.084.443,1,1,0,0,1-.268.383A1.372,1.372,0,0,1,2.646,12a2.166,2.166,0,0,1-.709.1,2.349,2.349,0,0,1-.258-.016,2.731,2.731,0,0,1-.283-.047,2.471,2.471,0,0,1-.273-.076,1.2,1.2,0,0,1-.229-.1l.129-.609a1.346,1.346,0,0,0,.193.109,2,2,0,0,0,.25.1,2.336,2.336,0,0,0,.281.07,1.583,1.583,0,0,0,.291.027.917.917,0,0,0,.584-.156.527.527,0,0,0,.193-.434.578.578,0,0,0-.029-.187.526.526,0,0,0-.1-.172,1.149,1.149,0,0,0-.2-.174q-.121-.088-.3-.2A1.973,1.973,0,0,1,1.6,9.725a1,1,0,0,1-.189-.6,1.216,1.216,0,0,1,.09-.463,1.12,1.12,0,0,1,.268-.391A1.3,1.3,0,0,1,2.211,8a1.78,1.78,0,0,1,.629-.1,2.509,2.509,0,0,1,.533.055A1.893,1.893,0,0,1,3.8,8.1Zm4.3.777a3.329,3.329,0,0,1-.15,1.008,2.577,2.577,0,0,1-.434.834,2.1,2.1,0,0,1-.687.566,1.957,1.957,0,0,1-.912.209,1.665,1.665,0,0,1-.619-.109,1.288,1.288,0,0,1-.469-.314,1.393,1.393,0,0,1-.3-.5,1.956,1.956,0,0,1-.1-.658A3.26,3.26,0,0,1,4.455,9.49,2.6,2.6,0,0,1,4.9,8.658,2.08,2.08,0,0,1,5.588,8.1a1.943,1.943,0,0,1,.885-.2,1.654,1.654,0,0,1,.615.109,1.307,1.307,0,0,1,.471.314,1.424,1.424,0,0,1,.3.5A1.891,1.891,0,0,1,7.969,9.48Zm-.656.031a1.493,1.493,0,0,0-.062-.451.96.96,0,0,0-.176-.332A.763.763,0,0,0,6.8,8.521a.864.864,0,0,0-.359-.072,1.136,1.136,0,0,0-.621.176,1.572,1.572,0,0,0-.469.463,2.3,2.3,0,0,0-.295.652,2.73,2.73,0,0,0-.1.748,1.494,1.494,0,0,0,.061.439,1,1,0,0,0,.172.336.742.742,0,0,0,.273.213.868.868,0,0,0,.365.074,1.152,1.152,0,0,0,.625-.174,1.55,1.55,0,0,0,.469-.461,2.253,2.253,0,0,0,.293-.654A2.8,2.8,0,0,0,7.313,9.512Zm3.953-.832H11.25a1.153,1.153,0,0,0-.205-.092.752.752,0,0,0-.252-.045.74.74,0,0,0-.434.146,1.594,1.594,0,0,0-.377.387,2.774,2.774,0,0,0-.3.549,3.748,3.748,0,0,0-.2.633L9.113,12H8.473l.563-2.656Q9.07,9.18,9.105,9t.064-.359q.029-.18.053-.344T9.258,8h.633q-.012.117-.027.248T9.832,8.5q-.016.123-.031.223t-.023.154h.016a4.312,4.312,0,0,1,.254-.4,1.859,1.859,0,0,1,.271-.307,1.151,1.151,0,0,1,.3-.2.855.855,0,0,1,.348-.07,1.1,1.1,0,0,1,.217.021q.107.021.193.045Zm5.039,0h-.016a1.153,1.153,0,0,0-.205-.092.752.752,0,0,0-.252-.045.74.74,0,0,0-.434.146,1.594,1.594,0,0,0-.377.387,2.774,2.774,0,0,0-.3.549,3.748,3.748,0,0,0-.2.633L14.152,12h-.641l.563-2.656q.035-.164.07-.344t.064-.359q.029-.18.053-.344T14.3,8h.633q-.012.117-.027.248t-.031.254q-.016.123-.031.223t-.023.154h.016a4.312,4.312,0,0,1,.254-.4,1.859,1.859,0,0,1,.271-.307,1.151,1.151,0,0,1,.3-.2.855.855,0,0,1,.348-.07,1.1,1.1,0,0,1,.217.021q.107.021.193.045Zm3.59.258a1.191,1.191,0,0,1-.141.576,1.165,1.165,0,0,1-.465.445,2.792,2.792,0,0,1-.855.287,7.339,7.339,0,0,1-1.312.105.5.5,0,0,0-.008.09v.078a1.328,1.328,0,0,0,.059.4.9.9,0,0,0,.182.328.857.857,0,0,0,.316.223,1.17,1.17,0,0,0,.459.082,1.948,1.948,0,0,0,.592-.1,2.543,2.543,0,0,0,.615-.295l-.121.633A2.539,2.539,0,0,1,18.7,12a2.2,2.2,0,0,1-.664.094,1.8,1.8,0,0,1-.744-.137,1.31,1.31,0,0,1-.488-.365,1.424,1.424,0,0,1-.268-.527,2.358,2.358,0,0,1-.082-.627,2.9,2.9,0,0,1,.078-.678,2.76,2.76,0,0,1,.221-.607,2.574,2.574,0,0,1,.342-.514,2.222,2.222,0,0,1,.441-.4,2.046,2.046,0,0,1,.52-.254,1.852,1.852,0,0,1,.574-.09,1.659,1.659,0,0,1,.545.082,1.139,1.139,0,0,1,.395.225.958.958,0,0,1,.24.33A.983.983,0,0,1,19.895,8.938Zm-.652.031a.452.452,0,0,0-.182-.383.783.783,0,0,0-.482-.137,1.082,1.082,0,0,0-.461.1,1.492,1.492,0,0,0-.41.285,1.78,1.78,0,0,0-.324.434,2.019,2.019,0,0,0-.2.545,6.752,6.752,0,0,0,.949-.057,2.463,2.463,0,0,0,.637-.166.856.856,0,0,0,.359-.268A.6.6,0,0,0,19.242,8.969Zm4.836.43a3.038,3.038,0,0,1-.062.6,3.1,3.1,0,0,1-.191.611,3.01,3.01,0,0,1-.322.57,2.313,2.313,0,0,1-.455.475,2.11,2.11,0,0,1-.594.324,2.161,2.161,0,0,1-.734.119,2.417,2.417,0,0,1-.455-.043,2.8,2.8,0,0,1-.393-.1l-.4,1.9h-.648L20.8,9.23q.027-.125.051-.3t.041-.354q.018-.178.029-.334T20.934,8h.656q0,.066-.01.18t-.025.236q-.016.123-.031.238T21.5,8.84h.016a2.11,2.11,0,0,1,.625-.705,1.336,1.336,0,0,1,.758-.232A1.238,1.238,0,0,1,23.387,8a.974.974,0,0,1,.373.281A1.3,1.3,0,0,1,24,8.746,2.337,2.337,0,0,1,24.078,9.4Zm-.656.027a1.932,1.932,0,0,0-.037-.391.866.866,0,0,0-.123-.309.623.623,0,0,0-.221-.2.676.676,0,0,0-.33-.074.88.88,0,0,0-.381.084,1.312,1.312,0,0,0-.33.225,1.841,1.841,0,0,0-.277.326,3.242,3.242,0,0,0-.223.385,3.381,3.381,0,0,0-.166.4,3.018,3.018,0,0,0-.1.377l-.246,1.16a1.1,1.1,0,0,0,.168.057q.1.025.2.045t.215.031a1.915,1.915,0,0,0,.2.012,1.349,1.349,0,0,0,.5-.09,1.445,1.445,0,0,0,.41-.244,1.723,1.723,0,0,0,.32-.363,2.411,2.411,0,0,0,.232-.445,2.621,2.621,0,0,0,.141-.488A2.7,2.7,0,0,0,23.422,9.426Zm3.953-.746h-.016a1.153,1.153,0,0,0-.205-.092.752.752,0,0,0-.252-.045.74.74,0,0,0-.434.146,1.594,1.594,0,0,0-.377.387,2.774,2.774,0,0,0-.3.549,3.748,3.748,0,0,0-.2.633L25.223,12h-.641l.563-2.656q.035-.164.07-.344t.064-.359q.029-.18.053-.344t.035-.3H26q-.012.117-.027.248t-.031.254q-.016.123-.031.223t-.023.154H25.9a4.312,4.312,0,0,1,.254-.4,1.859,1.859,0,0,1,.271-.307,1.151,1.151,0,0,1,.3-.2.855.855,0,0,1,.348-.07,1.1,1.1,0,0,1,.217.021q.107.021.193.045Zm3.59.258a1.191,1.191,0,0,1-.141.576,1.165,1.165,0,0,1-.465.445,2.792,2.792,0,0,1-.855.287,7.339,7.339,0,0,1-1.312.105.5.5,0,0,0-.008.09v.078a1.328,1.328,0,0,0,.059.4.9.9,0,0,0,.182.328.857.857,0,0,0,.316.223,1.17,1.17,0,0,0,.459.082,1.948,1.948,0,0,0,.592-.1,2.543,2.543,0,0,0,.615-.295l-.121.633a2.539,2.539,0,0,1-.512.219,2.2,2.2,0,0,1-.664.094,1.8,1.8,0,0,1-.744-.137,1.31,1.31,0,0,1-.488-.365,1.424,1.424,0,0,1-.268-.527,2.358,2.358,0,0,1-.082-.627,2.9,2.9,0,0,1,.078-.678,2.76,2.76,0,0,1,.221-.607,2.574,2.574,0,0,1,.342-.514,2.222,2.222,0,0,1,.441-.4,2.046,2.046,0,0,1,.52-.254A1.852,1.852,0,0,1,29.7,7.9a1.659,1.659,0,0,1,.545.082,1.139,1.139,0,0,1,.395.225.958.958,0,0,1,.24.33A.983.983,0,0,1,30.965,8.938Zm-.652.031a.452.452,0,0,0-.182-.383.783.783,0,0,0-.482-.137,1.082,1.082,0,0,0-.461.1,1.492,1.492,0,0,0-.41.285,1.78,1.78,0,0,0-.324.434,2.019,2.019,0,0,0-.2.545A6.752,6.752,0,0,0,29.2,9.76a2.463,2.463,0,0,0,.637-.166.856.856,0,0,0,.359-.268A.6.6,0,0,0,30.313,8.969ZM33.949,8.7a1.665,1.665,0,0,0-.395-.184,1.423,1.423,0,0,0-.437-.07.863.863,0,0,0-.568.168.551.551,0,0,0-.2.445.558.558,0,0,0,.037.207.625.625,0,0,0,.109.178.993.993,0,0,0,.184.162q.111.078.256.168a2.014,2.014,0,0,1,.631.521,1,1,0,0,1,.193.6,1.218,1.218,0,0,1-.084.443,1,1,0,0,1-.268.383,1.372,1.372,0,0,1-.475.268,2.166,2.166,0,0,1-.709.1,2.349,2.349,0,0,1-.258-.016,2.731,2.731,0,0,1-.283-.047,2.471,2.471,0,0,1-.273-.076,1.2,1.2,0,0,1-.229-.1l.129-.609a1.346,1.346,0,0,0,.193.109,2,2,0,0,0,.25.1,2.336,2.336,0,0,0,.281.07,1.583,1.583,0,0,0,.291.027.917.917,0,0,0,.584-.156.527.527,0,0,0,.193-.434.578.578,0,0,0-.029-.187.526.526,0,0,0-.1-.172,1.149,1.149,0,0,0-.2-.174q-.121-.088-.3-.2a1.973,1.973,0,0,1-.588-.506,1,1,0,0,1-.189-.6,1.216,1.216,0,0,1,.09-.463,1.12,1.12,0,0,1,.268-.391A1.3,1.3,0,0,1,32.5,8a1.78,1.78,0,0,1,.629-.1,2.509,2.509,0,0,1,.533.055,1.893,1.893,0,0,1,.428.141Zm4.07.234a1.191,1.191,0,0,1-.141.576,1.165,1.165,0,0,1-.465.445,2.792,2.792,0,0,1-.855.287,7.339,7.339,0,0,1-1.312.105.5.5,0,0,0-.008.09v.078a1.328,1.328,0,0,0,.059.4.9.9,0,0,0,.182.328.857.857,0,0,0,.316.223,1.17,1.17,0,0,0,.459.082,1.948,1.948,0,0,0,.592-.1,2.543,2.543,0,0,0,.615-.295l-.121.633a2.539,2.539,0,0,1-.512.219,2.2,2.2,0,0,1-.664.094,1.8,1.8,0,0,1-.744-.137,1.31,1.31,0,0,1-.488-.365,1.424,1.424,0,0,1-.268-.527,2.358,2.358,0,0,1-.082-.627,2.9,2.9,0,0,1,.078-.678,2.76,2.76,0,0,1,.221-.607,2.574,2.574,0,0,1,.342-.514,2.222,2.222,0,0,1,.441-.4,2.046,2.046,0,0,1,.52-.254,1.852,1.852,0,0,1,.574-.09,1.659,1.659,0,0,1,.545.082,1.139,1.139,0,0,1,.395.225.958.958,0,0,1,.24.33A.983.983,0,0,1,38.02,8.938Zm-.652.031a.452.452,0,0,0-.182-.383.783.783,0,0,0-.482-.137,1.082,1.082,0,0,0-.461.1,1.492,1.492,0,0,0-.41.285,1.78,1.78,0,0,0-.324.434,2.019,2.019,0,0,0-.2.545,6.752,6.752,0,0,0,.949-.057,2.463,2.463,0,0,0,.637-.166.856.856,0,0,0,.359-.268A.6.6,0,0,0,37.367,8.969ZM42.258,9a1.273,1.273,0,0,1-.014.16q-.014.1-.035.219l-.043.232q-.021.115-.041.2L41.66,12h-.648L41.5,9.656q.016-.063.031-.145t.027-.164q.012-.082.02-.15a1,1,0,0,0,.008-.107.712.712,0,0,0-.143-.469.519.519,0,0,0-.424-.172.986.986,0,0,0-.512.152,2.105,2.105,0,0,0-.469.387,2.637,2.637,0,0,0-.369.516,1.976,1.976,0,0,0-.209.543L39.043,12h-.648l.617-2.855q.031-.152.063-.318t.059-.32q.027-.154.047-.287T39.211,8h.625q-.02.152-.047.318t-.047.307q-.023.164-.051.32h.016a3.3,3.3,0,0,1,.3-.4,2.265,2.265,0,0,1,.359-.332,1.707,1.707,0,0,1,.41-.225,1.275,1.275,0,0,1,.455-.082,1.181,1.181,0,0,1,.457.08.856.856,0,0,1,.318.225.915.915,0,0,1,.188.348A1.554,1.554,0,0,1,42.258,9Zm3.105-.457H44.355l-.449,2.121q-.023.121-.047.262a1.446,1.446,0,0,0-.023.227.4.4,0,0,0,.088.287.382.382,0,0,0,.279.088.614.614,0,0,0,.121-.016q.074-.016.152-.039t.154-.053l.135-.053-.121.563a1.894,1.894,0,0,1-.311.1,1.439,1.439,0,0,1-.33.041,1.117,1.117,0,0,1-.379-.057.649.649,0,0,1-.256-.162.628.628,0,0,1-.145-.256,1.179,1.179,0,0,1-.045-.338,1.894,1.894,0,0,1,.021-.264,2.734,2.734,0,0,1,.053-.275l.461-2.176h-.664L43.172,8h.656l.207-.977a1.2,1.2,0,0,1,.119-.037l.227-.066.227-.068.115-.035L44.477,8h1.008Zm3.426,2.176q-.031.148-.061.334t-.051.367q-.021.182-.035.338T48.629,12h-.664q0-.078.012-.187T48,11.586q.014-.117.027-.23t.029-.2h-.016q-.121.191-.246.361a1.739,1.739,0,0,1-.277.3,1.214,1.214,0,0,1-.34.2,1.306,1.306,0,0,1-.92-.02,1,1,0,0,1-.373-.279,1.287,1.287,0,0,1-.24-.465,2.266,2.266,0,0,1-.084-.65,3.259,3.259,0,0,1,.047-.516,3.155,3.155,0,0,1,.158-.59,3,3,0,0,1,.3-.588,2.233,2.233,0,0,1,.461-.514,2.2,2.2,0,0,1,.65-.363,2.526,2.526,0,0,1,.867-.137,4.61,4.61,0,0,1,.645.047q.332.047.66.113Zm-.184-2.191q-.137-.031-.32-.055a2.723,2.723,0,0,0-.344-.023,1.559,1.559,0,0,0-.6.107,1.539,1.539,0,0,0-.451.281,1.656,1.656,0,0,0-.322.4,2.482,2.482,0,0,0-.209.463,2.725,2.725,0,0,0-.111.467,2.955,2.955,0,0,0-.033.418,1.872,1.872,0,0,0,.039.4.874.874,0,0,0,.123.3.578.578,0,0,0,.215.193.662.662,0,0,0,.311.068.846.846,0,0,0,.365-.08,1.266,1.266,0,0,0,.318-.217,1.78,1.78,0,0,0,.27-.316,3.113,3.113,0,0,0,.219-.381,3.257,3.257,0,0,0,.166-.41q.068-.209.111-.4Zm3.68.016H51.277l-.449,2.121q-.023.121-.047.262a1.446,1.446,0,0,0-.023.227.4.4,0,0,0,.088.287.382.382,0,0,0,.279.088.614.614,0,0,0,.121-.016q.074-.016.152-.039t.154-.053l.135-.053-.121.563a1.894,1.894,0,0,1-.311.1,1.439,1.439,0,0,1-.33.041,1.117,1.117,0,0,1-.379-.057.649.649,0,0,1-.256-.162.628.628,0,0,1-.145-.256,1.179,1.179,0,0,1-.045-.338,1.894,1.894,0,0,1,.021-.264,2.734,2.734,0,0,1,.053-.275l.461-2.176h-.664L50.094,8h.656l.207-.977a1.2,1.2,0,0,1,.119-.037L51.3,6.92l.227-.068.115-.035L51.4,8h1.008ZM53.8,11.984a1.5,1.5,0,0,1-.221.051,1.555,1.555,0,0,1-.244.02.8.8,0,0,1-.59-.2.719.719,0,0,1-.2-.529,1.614,1.614,0,0,1,.02-.23q.02-.133.063-.328L53.215,8h.648l-.586,2.785q-.035.164-.049.254a1.039,1.039,0,0,0-.014.152.322.322,0,0,0,.088.244.394.394,0,0,0,.279.084,1.183,1.183,0,0,0,.178-.012.787.787,0,0,0,.143-.035Zm.457-5.41a.42.42,0,0,1-.119.3A.391.391,0,0,1,53.844,7a.415.415,0,0,1-.3-.123.405.405,0,0,1-.127-.3.375.375,0,0,1,.127-.293.434.434,0,0,1,.3-.113.41.41,0,0,1,.293.115A.385.385,0,0,1,54.258,6.574ZM58.223,9.48a3.329,3.329,0,0,1-.15,1.008,2.577,2.577,0,0,1-.434.834,2.1,2.1,0,0,1-.687.566,1.957,1.957,0,0,1-.912.209,1.665,1.665,0,0,1-.619-.109,1.288,1.288,0,0,1-.469-.314,1.393,1.393,0,0,1-.3-.5,1.956,1.956,0,0,1-.1-.658,3.26,3.26,0,0,1,.158-1.029,2.6,2.6,0,0,1,.445-.832,2.08,2.08,0,0,1,.688-.555,1.943,1.943,0,0,1,.885-.2,1.654,1.654,0,0,1,.615.109,1.307,1.307,0,0,1,.471.314,1.424,1.424,0,0,1,.3.5A1.891,1.891,0,0,1,58.223,9.48Zm-.656.031a1.493,1.493,0,0,0-.062-.451.96.96,0,0,0-.176-.332.763.763,0,0,0-.273-.207.864.864,0,0,0-.359-.072,1.136,1.136,0,0,0-.621.176,1.572,1.572,0,0,0-.469.463,2.3,2.3,0,0,0-.295.652,2.73,2.73,0,0,0-.1.748,1.494,1.494,0,0,0,.061.439,1,1,0,0,0,.172.336.742.742,0,0,0,.273.213.868.868,0,0,0,.365.074,1.152,1.152,0,0,0,.625-.174,1.55,1.55,0,0,0,.469-.461,2.253,2.253,0,0,0,.293-.654A2.8,2.8,0,0,0,57.566,9.512ZM62.613,9a1.273,1.273,0,0,1-.014.16q-.014.1-.035.219l-.043.232q-.021.115-.041.2L62.016,12h-.648l.488-2.344q.016-.063.031-.145t.027-.164q.012-.082.02-.15a1,1,0,0,0,.008-.107.712.712,0,0,0-.143-.469.519.519,0,0,0-.424-.172.986.986,0,0,0-.512.152,2.105,2.105,0,0,0-.469.387,2.637,2.637,0,0,0-.369.516,1.976,1.976,0,0,0-.209.543L59.4,12H58.75l.617-2.855q.031-.152.063-.318t.059-.32q.027-.154.047-.287T59.566,8h.625q-.02.152-.047.318t-.047.307q-.023.164-.051.32h.016a3.3,3.3,0,0,1,.3-.4,2.265,2.265,0,0,1,.359-.332,1.707,1.707,0,0,1,.41-.225A1.275,1.275,0,0,1,61.59,7.9a1.181,1.181,0,0,1,.457.08.856.856,0,0,1,.318.225.915.915,0,0,1,.188.348A1.554,1.554,0,0,1,62.613,9Zm3.242-.3a1.665,1.665,0,0,0-.395-.184,1.423,1.423,0,0,0-.437-.07.863.863,0,0,0-.568.168.551.551,0,0,0-.2.445.558.558,0,0,0,.037.207.625.625,0,0,0,.109.178.993.993,0,0,0,.184.162q.111.078.256.168a2.014,2.014,0,0,1,.631.521,1,1,0,0,1,.193.6,1.218,1.218,0,0,1-.084.443,1,1,0,0,1-.268.383,1.372,1.372,0,0,1-.475.268,2.166,2.166,0,0,1-.709.1,2.349,2.349,0,0,1-.258-.016,2.731,2.731,0,0,1-.283-.047,2.471,2.471,0,0,1-.273-.076,1.2,1.2,0,0,1-.229-.1l.129-.609a1.346,1.346,0,0,0,.193.109,2,2,0,0,0,.25.1,2.336,2.336,0,0,0,.281.07,1.583,1.583,0,0,0,.291.027.917.917,0,0,0,.584-.156.527.527,0,0,0,.193-.434.578.578,0,0,0-.029-.187.526.526,0,0,0-.1-.172,1.149,1.149,0,0,0-.2-.174q-.121-.088-.3-.2a1.973,1.973,0,0,1-.588-.506,1,1,0,0,1-.189-.6,1.216,1.216,0,0,1,.09-.463,1.12,1.12,0,0,1,.268-.391A1.3,1.3,0,0,1,64.4,8a1.78,1.78,0,0,1,.629-.1,2.509,2.509,0,0,1,.533.055,1.893,1.893,0,0,1,.428.141Zm2.3.059a5.366,5.366,0,0,1-.557,2.416,6.186,6.186,0,0,1-.648,1.035,9.067,9.067,0,0,1-.854.955h-.629a9.679,9.679,0,0,0,.875-.982A6.5,6.5,0,0,0,67,11.137a5.525,5.525,0,0,0,.422-1.127,4.985,4.985,0,0,0,.107-1.846,5.092,5.092,0,0,0-.121-.625,4.793,4.793,0,0,0-.2-.6,3.9,3.9,0,0,0-.27-.543h.543a3.992,3.992,0,0,1,.289.555,4.506,4.506,0,0,1,.207.6,5.04,5.04,0,0,1,.125.611A4.318,4.318,0,0,1,68.152,8.762Z" transform="translate(615 45)" fill="#707070"/><g transform="translate(110 -19)"><g transform="translate(418 115)" fill="#f7f7f7" stroke="#d9e8f3" stroke-width="1"><rect width="145" height="237" rx="5" stroke="none"/><rect x="0.5" y="0.5" width="144" height="236" rx="4.5" fill="none"/></g><g transform="translate(466.313 90)"><g transform="translate(-0.313)" fill="#fff" stroke="rgba(0,120,215,0.12)" stroke-width="1"><rect width="50" height="50" rx="25" stroke="none"/><rect x="0.5" y="0.5" width="49" height="49" rx="24.5" fill="none"/></g><path d="M29.428,10.033v8.543l5.271-2.02v-4.65Zm-2.157,7.354-.347-.137V11.358l.347-.074.347-.137.421-.137V17.6l-.421-.137Zm-1.252-.41-.274-.074v-5.2l.831-.21v5.692l-.274-.074Zm-1.031-.347-.21-.074v-4.65l.621-.2v5.061Zm-.421-5.208V17.04l3.956,1.536V10.033ZM22.968,1.5v8.606l5.345-2.083V3.373Zm0,17.076v8.6L28.313,25.1v-4.65ZM20.885,8.854l-.347-.137v-5.9l.347-.063.347-.137.421-.147v6.6l-.421-.137Zm-1.242-.41-.284-.074V3.162l.831-.2V8.644l-.274-.063ZM18.6,8.16l-.21-.063V3.446l.621-.21V8.3Zm-.421-5.2V8.581l3.956,1.526V1.574Zm2.7,22.968-.347-.137v-5.9l.347-.074.347-.137.421-.137v6.6l-.421-.147Zm-1.242-.421-.284-.063V20.238l.831-.21V25.72l-.274-.074ZM18.6,25.236l-.21-.074v-4.65l.621-.2v5.061Zm-.421-5.208v5.618l3.956,1.526V18.639Zm-.968-10v8.543l.6-.23,4.671-1.79v-4.65Zm-2.157,7.354-.347-.137V11.358l.347-.074.347-.137.421-.137V17.6l-.421-.137Zm-1.242-.41L13.53,16.9v-5.2l.831-.21v5.692l-.274-.074Zm-1.042-.347-.21-.074v-4.65l.621-.2v5.061Zm-.421-5.208V17.04l3.956,1.536V10.033ZM10.553,1.5v8.606l5.334-2.083V3.373Zm0,17.076v8.6L15.887,25.1v-4.65ZM8.47,8.854l-.347-.137v-5.9l.347-.063.347-.137.41-.147v6.6l-.41-.137Zm-1.252-.41L6.944,8.37V3.162l.831-.2V8.644l-.284-.063ZM6.176,8.16,5.966,8.1V3.446l.631-.21V8.3Zm-.421-5.2V8.581l3.956,1.526V1.574ZM8.47,25.93l-.347-.137v-5.9l.347-.074.347-.137.41-.137v6.6l-.41-.147ZM7.218,25.51l-.274-.063V20.238l.831-.21V25.72l-.284-.074Zm-1.042-.274-.21-.074v-4.65l.631-.2v5.061Zm-.421-5.208v5.618l3.956,1.526V18.639Zm-.894-10v8.543l5.271-2.02v-4.65ZM2.7,17.387l-.347-.137V11.358l.347-.074.347-.137.421-.137V17.6l-.421-.137Zm-1.242-.41L1.178,16.9v-5.2l.831-.21v5.692l-.274-.074ZM.421,16.63l-.21-.074v-4.65l.621-.2v5.061ZM0,11.422V17.04l3.956,1.536V10.033Z" transform="translate(7.768 10.534)" fill="#0078d7" fill-rule="evenodd"/></g><g transform="translate(433 151)" clip-path="url(#g)"><g transform="translate(0.387 -2.765)"><g transform="translate(-0.387 13.765)" fill="#fff" stroke="#d9e8f3" stroke-width="1"><rect width="114" height="72" rx="5" stroke="none"/><rect x="0.5" y="0.5" width="113" height="71" rx="4.5" fill="none"/></g><g transform="translate(7.613 43.765)" fill="none" stroke="#0d2192" stroke-width="1"><rect width="33" height="34" rx="3" stroke="none"/><rect x="0.5" y="0.5" width="32" height="33" rx="2.5" fill="none"/></g><g transform="translate(28.613 2.765)" fill="#fff" stroke="#d9e8f3" stroke-width="1"><rect width="56" height="22" rx="5" stroke="none"/><rect x="0.5" y="0.5" width="55" height="21" rx="4.5" fill="none"/></g><g transform="translate(34.613 7.765)" fill="#59b4d9" stroke="#0078d7" stroke-width="1"><rect width="15" height="13" rx="2" stroke="none"/><rect x="0.5" y="0.5" width="14" height="12" rx="1.5" fill="none"/></g><line y2="6.275" transform="translate(38.752 11.453)" fill="none" stroke="#0078d7" stroke-width="1"/><line y2="6.275" transform="translate(42.228 11.453)" fill="none" stroke="#0078d7" stroke-width="1"/><line y2="6.275" transform="translate(45.704 11.453)" fill="none" stroke="#0078d7" stroke-width="1"/><path d="M-5.036-.911V1.511H-6.619V-5.52h2.481q2.657,0,2.657,2.241a2.15,2.15,0,0,1-.762,1.713,3.02,3.02,0,0,1-2.037.655Zm0-3.393v2.191h.623q1.265,0,1.265-1.108,0-1.083-1.265-1.083ZM1.49,1.633A2.7,2.7,0,0,1-.483.93,2.551,2.551,0,0,1-1.2-.98,2.551,2.551,0,0,1-.457-2.929a2.816,2.816,0,0,1,2.015-.7,2.666,2.666,0,0,1,1.961.7A2.5,2.5,0,0,1,4.23-1.068,2.655,2.655,0,0,1,3.5.908,2.729,2.729,0,0,1,1.49,1.633Zm.039-4.079a1.033,1.033,0,0,0-.853.378A1.665,1.665,0,0,0,.372-1Q.372.447,1.539.447q1.113,0,1.113-1.486Q2.652-2.446,1.529-2.446Zm8.619,3.956H8.6V.819h-.02a1.737,1.737,0,0,1-1.554.814A1.9,1.9,0,0,1,5.51.969,2.75,2.75,0,0,1,4.936-.887a2.993,2.993,0,0,1,.632-2,2.063,2.063,0,0,1,1.657-.75,1.41,1.41,0,0,1,1.353.7H8.6V-5.922h1.549ZM8.628-.931v-.378a1.188,1.188,0,0,0-.284-.814.939.939,0,0,0-.74-.324.933.933,0,0,0-.8.4A1.878,1.878,0,0,0,6.51-.931,1.625,1.625,0,0,0,6.79.089a.928.928,0,0,0,.775.358A.932.932,0,0,0,8.332.069,1.574,1.574,0,0,0,8.628-.931Z" transform="translate(64.386 16.845)" fill="#0078d7"/><line x2="61.153" transform="translate(40.113 47.265)" fill="none" stroke="#0d2192" stroke-width="1"/><line x2="61.153" transform="translate(40.113 56.265)" fill="none" stroke="#0d2192" stroke-width="1"/><line x2="61.153" transform="translate(40.113 65.265)" fill="none" stroke="#0d2192" stroke-width="1"/><line y2="26" transform="translate(49.113 46.765)" fill="none" stroke="#0d2192" stroke-width="1"/><line y2="26" transform="translate(58.113 46.765)" fill="none" stroke="#0d2192" stroke-width="1"/><line y2="26" transform="translate(67.113 46.765)" fill="none" stroke="#0d2192" stroke-width="1"/><line y2="26" transform="translate(76.113 46.765)" fill="none" stroke="#0d2192" stroke-width="1"/><line y2="26" transform="translate(85.113 46.765)" fill="none" stroke="#0d2192" stroke-width="1"/><line y2="26" transform="translate(94.113 46.765)" fill="none" stroke="#0d2192" stroke-width="1"/><line y2="26" transform="translate(103.113 46.765)" fill="none" stroke="#0d2192" stroke-width="1"/><line x2="61.153" transform="translate(40.113 74.265)" fill="none" stroke="#0d2192" stroke-width="1"/><g transform="translate(45.613 43.765)" clip-path="url(#h)"><g transform="translate(-405 -290)"><g transform="translate(405 290)" fill="#59b4d9" stroke="#0078d7" stroke-width="1"><circle cx="3.5" cy="3.5" r="3.5" stroke="none"/><circle cx="3.5" cy="3.5" r="3" fill="none"/></g><g transform="translate(405 299)" fill="#59b4d9" stroke="#0078d7" stroke-width="1"><circle cx="3.5" cy="3.5" r="3.5" stroke="none"/><circle cx="3.5" cy="3.5" r="3" fill="none"/></g><g transform="translate(405 308)" fill="#59b4d9" stroke="#0078d7" stroke-width="1"><circle cx="3.5" cy="3.5" r="3.5" stroke="none"/><circle cx="3.5" cy="3.5" r="3" fill="none"/></g></g><g transform="translate(-396 -290)"><g transform="translate(405 290)" fill="#59b4d9" stroke="#0078d7" stroke-width="1"><circle cx="3.5" cy="3.5" r="3.5" stroke="none"/><circle cx="3.5" cy="3.5" r="3" fill="none"/></g><g transform="translate(405 299)" fill="#59b4d9" stroke="#0078d7" stroke-width="1"><circle cx="3.5" cy="3.5" r="3.5" stroke="none"/><circle cx="3.5" cy="3.5" r="3" fill="none"/></g><g transform="translate(405 308)" fill="#59b4d9" stroke="#0078d7" stroke-width="1"><circle cx="3.5" cy="3.5" r="3.5" stroke="none"/><circle cx="3.5" cy="3.5" r="3" fill="none"/></g></g><g transform="translate(-387 -290)"><g transform="translate(405 290)" fill="#59b4d9" stroke="#0078d7" stroke-width="1"><circle cx="3.5" cy="3.5" r="3.5" stroke="none"/><circle cx="3.5" cy="3.5" r="3" fill="none"/></g><g transform="translate(405 299)" fill="#59b4d9" stroke="#0078d7" stroke-width="1"><circle cx="3.5" cy="3.5" r="3.5" stroke="none"/><circle cx="3.5" cy="3.5" r="3" fill="none"/></g><g transform="translate(405 308)" fill="#59b4d9" stroke="#0078d7" stroke-width="1"><circle cx="3.5" cy="3.5" r="3.5" stroke="none"/><circle cx="3.5" cy="3.5" r="3" fill="none"/></g></g><g transform="translate(-378 -290)"><g transform="translate(405 290)" fill="#59b4d9" stroke="#0078d7" stroke-width="1"><circle cx="3.5" cy="3.5" r="3.5" stroke="none"/><circle cx="3.5" cy="3.5" r="3" fill="none"/></g><g transform="translate(405 299)" fill="#59b4d9" stroke="#0078d7" stroke-width="1"><circle cx="3.5" cy="3.5" r="3.5" stroke="none"/><circle cx="3.5" cy="3.5" r="3" fill="none"/></g><g transform="translate(405 308)" fill="#59b4d9" stroke="#0078d7" stroke-width="1"><circle cx="3.5" cy="3.5" r="3.5" stroke="none"/><circle cx="3.5" cy="3.5" r="3" fill="none"/></g></g><g transform="translate(-369 -290)"><g transform="translate(405 290)" fill="#59b4d9" stroke="#0078d7" stroke-width="1"><circle cx="3.5" cy="3.5" r="3.5" stroke="none"/><circle cx="3.5" cy="3.5" r="3" fill="none"/></g><g transform="translate(405 299)" fill="#59b4d9" stroke="#0078d7" stroke-width="1"><circle cx="3.5" cy="3.5" r="3.5" stroke="none"/><circle cx="3.5" cy="3.5" r="3" fill="none"/></g><g transform="translate(405 308)" fill="#59b4d9" stroke="#0078d7" stroke-width="1"><circle cx="3.5" cy="3.5" r="3.5" stroke="none"/><circle cx="3.5" cy="3.5" r="3" fill="none"/></g></g><g transform="translate(-360 -290)"><g transform="translate(405 290)" fill="#59b4d9" stroke="#0078d7" stroke-width="1"><circle cx="3.5" cy="3.5" r="3.5" stroke="none"/><circle cx="3.5" cy="3.5" r="3" fill="none"/></g><g transform="translate(405 299)" fill="#59b4d9" stroke="#0078d7" stroke-width="1"><circle cx="3.5" cy="3.5" r="3.5" stroke="none"/><circle cx="3.5" cy="3.5" r="3" fill="none"/></g><g transform="translate(405 308)" fill="#59b4d9" stroke="#0078d7" stroke-width="1"><circle cx="3.5" cy="3.5" r="3.5" stroke="none"/><circle cx="3.5" cy="3.5" r="3" fill="none"/></g></g><g transform="translate(-351 -290)"><g transform="translate(405 290)" fill="#59b4d9" stroke="#0078d7" stroke-width="1"><circle cx="3.5" cy="3.5" r="3.5" stroke="none"/><circle cx="3.5" cy="3.5" r="3" fill="none"/></g><g transform="translate(405 299)" fill="#59b4d9" stroke="#0078d7" stroke-width="1"><circle cx="3.5" cy="3.5" r="3.5" stroke="none"/><circle cx="3.5" cy="3.5" r="3" fill="none"/></g><g transform="translate(405 308)" fill="#59b4d9" stroke="#0078d7" stroke-width="1"><circle cx="3.5" cy="3.5" r="3.5" stroke="none"/><circle cx="3.5" cy="3.5" r="3" fill="none"/></g></g><g transform="translate(-405 -263)"><g transform="translate(405 290)" fill="#59b4d9" stroke="#0078d7" stroke-width="1"><circle cx="3.5" cy="3.5" r="3.5" stroke="none"/><circle cx="3.5" cy="3.5" r="3" fill="none"/></g><g transform="translate(405 299)" fill="#59b4d9" stroke="#0078d7" stroke-width="1"><circle cx="3.5" cy="3.5" r="3.5" stroke="none"/><circle cx="3.5" cy="3.5" r="3" fill="none"/></g><g transform="translate(405 308)" fill="#59b4d9" stroke="#0078d7" stroke-width="1"><circle cx="3.5" cy="3.5" r="3.5" stroke="none"/><circle cx="3.5" cy="3.5" r="3" fill="none"/></g></g><g transform="translate(-396 -263)"><g transform="translate(405 290)" fill="#59b4d9" stroke="#0078d7" stroke-width="1"><circle cx="3.5" cy="3.5" r="3.5" stroke="none"/><circle cx="3.5" cy="3.5" r="3" fill="none"/></g><g transform="translate(405 299)" fill="#59b4d9" stroke="#0078d7" stroke-width="1"><circle cx="3.5" cy="3.5" r="3.5" stroke="none"/><circle cx="3.5" cy="3.5" r="3" fill="none"/></g><g transform="translate(405 308)" fill="#59b4d9" stroke="#0078d7" stroke-width="1"><circle cx="3.5" cy="3.5" r="3.5" stroke="none"/><circle cx="3.5" cy="3.5" r="3" fill="none"/></g></g><g transform="translate(-387 -263)"><g transform="translate(405 290)" fill="#59b4d9" stroke="#0078d7" stroke-width="1"><circle cx="3.5" cy="3.5" r="3.5" stroke="none"/><circle cx="3.5" cy="3.5" r="3" fill="none"/></g><g transform="translate(405 299)" fill="#59b4d9" stroke="#0078d7" stroke-width="1"><circle cx="3.5" cy="3.5" r="3.5" stroke="none"/><circle cx="3.5" cy="3.5" r="3" fill="none"/></g><g transform="translate(405 308)" fill="#59b4d9" stroke="#0078d7" stroke-width="1"><circle cx="3.5" cy="3.5" r="3.5" stroke="none"/><circle cx="3.5" cy="3.5" r="3" fill="none"/></g></g><g transform="translate(-378 -263)"><g transform="translate(405 290)" fill="#59b4d9" stroke="#0078d7" stroke-width="1"><circle cx="3.5" cy="3.5" r="3.5" stroke="none"/><circle cx="3.5" cy="3.5" r="3" fill="none"/></g><g transform="translate(405 299)" fill="#59b4d9" stroke="#0078d7" stroke-width="1"><circle cx="3.5" cy="3.5" r="3.5" stroke="none"/><circle cx="3.5" cy="3.5" r="3" fill="none"/></g><g transform="translate(405 308)" fill="#59b4d9" stroke="#0078d7" stroke-width="1"><circle cx="3.5" cy="3.5" r="3.5" stroke="none"/><circle cx="3.5" cy="3.5" r="3" fill="none"/></g></g><g transform="translate(-369 -263)"><g transform="translate(405 290)" fill="#59b4d9" stroke="#0078d7" stroke-width="1"><circle cx="3.5" cy="3.5" r="3.5" stroke="none"/><circle cx="3.5" cy="3.5" r="3" fill="none"/></g><g transform="translate(405 299)" fill="#59b4d9" stroke="#0078d7" stroke-width="1"><circle cx="3.5" cy="3.5" r="3.5" stroke="none"/><circle cx="3.5" cy="3.5" r="3" fill="none"/></g><g transform="translate(405 308)" fill="#59b4d9" stroke="#0078d7" stroke-width="1"><circle cx="3.5" cy="3.5" r="3.5" stroke="none"/><circle cx="3.5" cy="3.5" r="3" fill="none"/></g></g><g transform="translate(-360 -263)"><g transform="translate(405 290)" fill="#59b4d9" stroke="#0078d7" stroke-width="1"><circle cx="3.5" cy="3.5" r="3.5" stroke="none"/><circle cx="3.5" cy="3.5" r="3" fill="none"/></g><g transform="translate(405 299)" fill="#59b4d9" stroke="#0078d7" stroke-width="1"><circle cx="3.5" cy="3.5" r="3.5" stroke="none"/><circle cx="3.5" cy="3.5" r="3" fill="none"/></g><g transform="translate(405 308)" fill="#59b4d9" stroke="#0078d7" stroke-width="1"><circle cx="3.5" cy="3.5" r="3.5" stroke="none"/><circle cx="3.5" cy="3.5" r="3" fill="none"/></g></g><g transform="translate(-351 -263)"><g transform="translate(405 290)" fill="#59b4d9" stroke="#0078d7" stroke-width="1"><circle cx="3.5" cy="3.5" r="3.5" stroke="none"/><circle cx="3.5" cy="3.5" r="3" fill="none"/></g><g transform="translate(405 299)" fill="#59b4d9" stroke="#0078d7" stroke-width="1"><circle cx="3.5" cy="3.5" r="3.5" stroke="none"/><circle cx="3.5" cy="3.5" r="3" fill="none"/></g><g transform="translate(405 308)" fill="#59b4d9" stroke="#0078d7" stroke-width="1"><circle cx="3.5" cy="3.5" r="3.5" stroke="none"/><circle cx="3.5" cy="3.5" r="3" fill="none"/></g></g></g><path d="M-15.741,1.733H-17.2l-.422-1.32H-19.73l-.418,1.32H-21.6l2.16-5.934h1.585ZM-17.926-.613l-.637-1.995a2.6,2.6,0,0,1-.1-.534H-18.7a2.263,2.263,0,0,1-.1.517l-.646,2.011Zm6.009,2.193a2.586,2.586,0,0,1-1.279.257,2.163,2.163,0,0,1-1.581-.592,2.044,2.044,0,0,1-.6-1.527,2.251,2.251,0,0,1,.648-1.7A2.393,2.393,0,0,1-13-2.608a2.222,2.222,0,0,1,1.084.2V-1.3a1.491,1.491,0,0,0-.915-.306,1.205,1.205,0,0,0-.892.329,1.228,1.228,0,0,0-.329.908,1.208,1.208,0,0,0,.315.884,1.156,1.156,0,0,0,.865.321,1.726,1.726,0,0,0,.956-.306Zm3.418.1a1.933,1.933,0,0,1-.873.153q-1.382,0-1.382-1.436V-1.54h-.687V-2.5h.687v-.915l1.3-.372V-2.5H-8.5v.964H-9.45V.173q0,.662.526.662A.886.886,0,0,0-8.5.715Zm2.723.153a2.278,2.278,0,0,1-1.666-.594A2.153,2.153,0,0,1-8.048-.369a2.153,2.153,0,0,1,.629-1.645,2.377,2.377,0,0,1,1.7-.594,2.25,2.25,0,0,1,1.655.594,2.111,2.111,0,0,1,.6,1.57,2.241,2.241,0,0,1-.619,1.668A2.3,2.3,0,0,1-5.776,1.837Zm.033-3.443a.872.872,0,0,0-.72.319,1.405,1.405,0,0,0-.257.9q0,1.221.985,1.221.939,0,.939-1.254Q-4.795-1.606-5.743-1.606ZM.15-1.325A1.134,1.134,0,0,0-.4-1.453a.793.793,0,0,0-.666.312,1.363,1.363,0,0,0-.24.85V1.733H-2.614V-2.5h1.308v.786h.017A1.131,1.131,0,0,1-.173-2.579a.842.842,0,0,1,.323.05ZM4.562,1.733H3.225V-4.2H4.562Zm5.313,0h-1.3V-.622q0-.985-.7-.985a.7.7,0,0,0-.559.261.993.993,0,0,0-.219.662V1.733H5.782V-2.5H7.09v.67h.017a1.5,1.5,0,0,1,1.361-.774q1.407,0,1.407,1.746Zm.757-.112V.562a2.784,2.784,0,0,0,.643.29,2.134,2.134,0,0,0,.606.1,1.3,1.3,0,0,0,.548-.1.308.308,0,0,0,.2-.29A.268.268,0,0,0,12.54.355.846.846,0,0,0,12.306.21,2.653,2.653,0,0,0,11.994.1q-.17-.05-.327-.112a3.132,3.132,0,0,1-.445-.2A1.286,1.286,0,0,1,10.9-.473a1,1,0,0,1-.2-.335,1.338,1.338,0,0,1-.068-.451,1.161,1.161,0,0,1,.155-.612,1.268,1.268,0,0,1,.414-.42,1.891,1.891,0,0,1,.592-.24,3.086,3.086,0,0,1,.693-.077,3.846,3.846,0,0,1,.571.043,4.262,4.262,0,0,1,.571.126v1.01a2.064,2.064,0,0,0-.532-.217,2.243,2.243,0,0,0-.557-.072A1.233,1.233,0,0,0,12.3-1.7a.8.8,0,0,0-.2.066.369.369,0,0,0-.137.112.257.257,0,0,0-.05.155.287.287,0,0,0,.074.2.647.647,0,0,0,.194.143,1.92,1.92,0,0,0,.267.108l.292.1a3.793,3.793,0,0,1,.472.2,1.508,1.508,0,0,1,.362.252.991.991,0,0,1,.232.339,1.206,1.206,0,0,1,.081.463,1.209,1.209,0,0,1-.163.643,1.309,1.309,0,0,1-.435.435,1.971,1.971,0,0,1-.625.244,3.464,3.464,0,0,1-.735.077A3.787,3.787,0,0,1,10.632,1.621Zm6.567.062a1.933,1.933,0,0,1-.873.153q-1.382,0-1.382-1.436V-1.54h-.687V-2.5h.687v-.915l1.3-.372V-2.5H17.2v.964h-.952V.173q0,.662.526.662A.886.886,0,0,0,17.2.715Zm4.262.05H20.225V1.125h-.017a1.381,1.381,0,0,1-1.262.712,1.32,1.32,0,0,1-.97-.35,1.253,1.253,0,0,1-.354-.933q0-1.233,1.461-1.424l1.15-.153q0-.7-.753-.7a2.571,2.571,0,0,0-1.44.451v-.985a3.24,3.24,0,0,1,.747-.248,3.926,3.926,0,0,1,.863-.108A1.6,1.6,0,0,1,21.462-.8ZM20.233.012V-.274l-.77.1q-.637.083-.637.575a.475.475,0,0,0,.155.366A.6.6,0,0,0,19.4.91.774.774,0,0,0,20,.655.919.919,0,0,0,20.233.012Zm6.356,1.722h-1.3V-.622q0-.985-.7-.985a.7.7,0,0,0-.559.261.993.993,0,0,0-.219.662V1.733H22.5V-2.5H23.8v.67h.017a1.5,1.5,0,0,1,1.361-.774q1.407,0,1.407,1.746Zm4.246-.153a2.586,2.586,0,0,1-1.279.257,2.163,2.163,0,0,1-1.581-.592,2.044,2.044,0,0,1-.6-1.527,2.252,2.252,0,0,1,.648-1.7,2.393,2.393,0,0,1,1.732-.623,2.222,2.222,0,0,1,1.084.2V-1.3a1.491,1.491,0,0,0-.915-.306,1.205,1.205,0,0,0-.892.329,1.228,1.228,0,0,0-.329.908,1.208,1.208,0,0,0,.315.884,1.156,1.156,0,0,0,.865.321,1.726,1.726,0,0,0,.956-.306ZM35.5-.013H32.735Q32.8.91,33.9.91A2.27,2.27,0,0,0,35.127.578v.944a3.229,3.229,0,0,1-1.527.315,2.15,2.15,0,0,1-1.593-.569A2.15,2.15,0,0,1,31.439-.32a2.268,2.268,0,0,1,.612-1.672,2.04,2.04,0,0,1,1.506-.617,1.852,1.852,0,0,1,1.434.55A2.12,2.12,0,0,1,35.5-.564Zm-1.213-.8q0-.91-.737-.91a.7.7,0,0,0-.544.261,1.183,1.183,0,0,0-.279.65ZM36,1.621V.562a2.784,2.784,0,0,0,.643.29,2.134,2.134,0,0,0,.606.1,1.3,1.3,0,0,0,.548-.1.307.307,0,0,0,.2-.29.268.268,0,0,0-.091-.207A.847.847,0,0,0,37.674.21,2.653,2.653,0,0,0,37.361.1q-.17-.05-.327-.112a3.132,3.132,0,0,1-.445-.2,1.286,1.286,0,0,1-.323-.255,1,1,0,0,1-.2-.335A1.338,1.338,0,0,1,36-1.259a1.161,1.161,0,0,1,.155-.612,1.268,1.268,0,0,1,.414-.42,1.891,1.891,0,0,1,.592-.24,3.085,3.085,0,0,1,.693-.077,3.846,3.846,0,0,1,.571.043A4.263,4.263,0,0,1,39-2.438v1.01a2.064,2.064,0,0,0-.532-.217,2.243,2.243,0,0,0-.557-.072,1.233,1.233,0,0,0-.242.023.8.8,0,0,0-.2.066.369.369,0,0,0-.137.112.257.257,0,0,0-.05.155.287.287,0,0,0,.074.2.647.647,0,0,0,.194.143,1.92,1.92,0,0,0,.267.108l.292.1a3.793,3.793,0,0,1,.472.2,1.508,1.508,0,0,1,.362.252.991.991,0,0,1,.232.339,1.206,1.206,0,0,1,.081.463,1.209,1.209,0,0,1-.163.643,1.309,1.309,0,0,1-.435.435,1.97,1.97,0,0,1-.625.244,3.464,3.464,0,0,1-.735.077A3.787,3.787,0,0,1,36,1.621Z" transform="translate(48.365 35.354)" fill="#0078d7"/><g transform="translate(-448.387 -132.235)" clip-path="url(#i)"><g transform="translate(456.978 176.956)" clip-path="url(#j)"><path d="M14.606,34.575H12.852v-.552a1.8,1.8,0,0,1-.508.461,2.054,2.054,0,0,1-1.022.252A2.42,2.42,0,0,1,9.675,34.1,2.786,2.786,0,0,1,9.7,30.05a2.392,2.392,0,0,1,1.61-.605,2.256,2.256,0,0,1,.995.225,1.982,1.982,0,0,1,.551.423V26.532h1.754Zm-1.7-2.485a1.134,1.134,0,0,0-2-.734,1.123,1.123,0,0,0,0,1.467,1.07,1.07,0,0,0,.861.4,1.1,1.1,0,0,0,.805-.327A1.088,1.088,0,0,0,12.905,32.09Zm8.281,2.485H19.432v-.552a1.806,1.806,0,0,1-.508.461,2.054,2.054,0,0,1-1.022.252,2.42,2.42,0,0,1-1.647-.637,2.786,2.786,0,0,1,.021-4.048,2.392,2.392,0,0,1,1.61-.605,2.256,2.256,0,0,1,.995.225,1.981,1.981,0,0,1,.551.423v-.487h1.754Zm-1.7-2.485a1.134,1.134,0,0,0-2-.734,1.123,1.123,0,0,0,0,1.467,1.07,1.07,0,0,0,.861.4,1.1,1.1,0,0,0,.8-.327A1.088,1.088,0,0,0,19.485,32.09Zm8.479.005a2.55,2.55,0,0,1-.883,2.035,2.392,2.392,0,0,1-1.61.605,2.256,2.256,0,0,1-.995-.225,1.983,1.983,0,0,1-.551-.423V37.06H22.171V29.606h1.754v.552a1.643,1.643,0,0,1,.508-.461,2.054,2.054,0,0,1,1.022-.252,2.42,2.42,0,0,1,1.647.637A2.555,2.555,0,0,1,27.964,32.1ZM26.14,32.09a1.136,1.136,0,1,0-1.134,1.13,1.07,1.07,0,0,0,.861-.4A1.1,1.1,0,0,0,26.14,32.09Zm6.334-.862a1.718,1.718,0,0,0-.749-.177,1.067,1.067,0,0,0-1.123.707,2.019,2.019,0,0,0-.1.691v2.126H28.751V29.606h1.754v.814a1.913,1.913,0,0,1,.6-.626,1.975,1.975,0,0,1,1.027-.257q.139,0,.342.016Z" transform="translate(-4.909 -14.781)" fill="#0d2192" fill-rule="evenodd"/><path d="M39.524,45.247h1.766l.152,4.152-1.035.726L39.372,49.4Z" transform="translate(-22.276 -25.418)" fill="#0d2192"/><path d="M37.121,16.231a.131.131,0,0,1,.131.131v4.461a.131.131,0,0,1-.131.131H30.68a.131.131,0,0,1-.13-.131V16.361a.131.131,0,0,1,.13-.131Z" transform="translate(-17.263 -8.927)" fill="#0d2192"/><path d="M30.55,16.231h2.479v4.722H30.55Z" transform="translate(-17.263 -8.927)" fill="rgba(255,255,255,0.08)"/><path d="M36.251,26.463a.243.243,0,0,1,.243.243v.647a.243.243,0,0,1-.243.243H25.89a.243.243,0,0,1-.243-.243v-.647a.243.243,0,0,1,.243-.243Z" transform="translate(-14.476 -14.742)" fill="#0d2192"/><path d="M25.647,26.463H29v1.395H25.647Z" transform="translate(-14.476 -14.742)" fill="rgba(255,255,255,0.08)"/></g></g></g><g transform="translate(0.387 100.235)"><g transform="translate(-0.387 13.765)" fill="#fff" stroke="#d9e8f3" stroke-width="1"><rect width="114" height="72" rx="5" stroke="none"/><rect x="0.5" y="0.5" width="113" height="71" rx="4.5" fill="none"/></g><g transform="translate(7.613 43.765)" fill="none" stroke="#0d2192" stroke-width="1"><rect width="33" height="34" rx="3" stroke="none"/><rect x="0.5" y="0.5" width="32" height="33" rx="2.5" fill="none"/></g><g transform="translate(28.613 2.765)" fill="#fff" stroke="#d9e8f3" stroke-width="1"><rect width="56" height="22" rx="5" stroke="none"/><rect x="0.5" y="0.5" width="55" height="21" rx="4.5" fill="none"/></g><g transform="translate(34.613 7.765)" fill="#59b4d9" stroke="#0078d7" stroke-width="1"><rect width="15" height="13" rx="2" stroke="none"/><rect x="0.5" y="0.5" width="14" height="12" rx="1.5" fill="none"/></g><line y2="6.275" transform="translate(38.752 11.453)" fill="none" stroke="#0078d7" stroke-width="1"/><line y2="6.275" transform="translate(42.228 11.453)" fill="none" stroke="#0078d7" stroke-width="1"/><line y2="6.275" transform="translate(45.704 11.453)" fill="none" stroke="#0078d7" stroke-width="1"/><path d="M-5.036-.911V1.511H-6.619V-5.52h2.481q2.657,0,2.657,2.241a2.15,2.15,0,0,1-.762,1.713,3.02,3.02,0,0,1-2.037.655Zm0-3.393v2.191h.623q1.265,0,1.265-1.108,0-1.083-1.265-1.083ZM1.49,1.633A2.7,2.7,0,0,1-.483.93,2.551,2.551,0,0,1-1.2-.98,2.551,2.551,0,0,1-.457-2.929a2.816,2.816,0,0,1,2.015-.7,2.666,2.666,0,0,1,1.961.7A2.5,2.5,0,0,1,4.23-1.068,2.655,2.655,0,0,1,3.5.908,2.729,2.729,0,0,1,1.49,1.633Zm.039-4.079a1.033,1.033,0,0,0-.853.378A1.665,1.665,0,0,0,.372-1Q.372.447,1.539.447q1.113,0,1.113-1.486Q2.652-2.446,1.529-2.446Zm8.619,3.956H8.6V.819h-.02a1.737,1.737,0,0,1-1.554.814A1.9,1.9,0,0,1,5.51.969,2.75,2.75,0,0,1,4.936-.887a2.993,2.993,0,0,1,.632-2,2.063,2.063,0,0,1,1.657-.75,1.41,1.41,0,0,1,1.353.7H8.6V-5.922h1.549ZM8.628-.931v-.378a1.188,1.188,0,0,0-.284-.814.939.939,0,0,0-.74-.324.933.933,0,0,0-.8.4A1.878,1.878,0,0,0,6.51-.931,1.625,1.625,0,0,0,6.79.089a.928.928,0,0,0,.775.358A.932.932,0,0,0,8.332.069,1.574,1.574,0,0,0,8.628-.931Z" transform="translate(64.386 16.845)" fill="#0078d7"/><line x2="61.153" transform="translate(40.113 47.265)" fill="none" stroke="#0d2192" stroke-width="1"/><line x2="61.153" transform="translate(40.113 56.265)" fill="none" stroke="#0d2192" stroke-width="1"/><line x2="61.153" transform="translate(40.113 65.265)" fill="none" stroke="#0d2192" stroke-width="1"/><line y2="26" transform="translate(49.113 46.765)" fill="none" stroke="#0d2192" stroke-width="1"/><line y2="26" transform="translate(58.113 46.765)" fill="none" stroke="#0d2192" stroke-width="1"/><line y2="26" transform="translate(67.113 46.765)" fill="none" stroke="#0d2192" stroke-width="1"/><line y2="26" transform="translate(76.113 46.765)" fill="none" stroke="#0d2192" stroke-width="1"/><line y2="26" transform="translate(85.113 46.765)" fill="none" stroke="#0d2192" stroke-width="1"/><line y2="26" transform="translate(94.113 46.765)" fill="none" stroke="#0d2192" stroke-width="1"/><line y2="26" transform="translate(103.113 46.765)" fill="none" stroke="#0d2192" stroke-width="1"/><line x2="61.153" transform="translate(40.113 74.265)" fill="none" stroke="#0d2192" stroke-width="1"/><g transform="translate(45.613 43.765)" clip-path="url(#h)"><g transform="translate(-405 -290)"><g transform="translate(405 290)" fill="#59b4d9" stroke="#0078d7" stroke-width="1"><circle cx="3.5" cy="3.5" r="3.5" stroke="none"/><circle cx="3.5" cy="3.5" r="3" fill="none"/></g><g transform="translate(405 299)" fill="#59b4d9" stroke="#0078d7" stroke-width="1"><circle cx="3.5" cy="3.5" r="3.5" stroke="none"/><circle cx="3.5" cy="3.5" r="3" fill="none"/></g><g transform="translate(405 308)" fill="#59b4d9" stroke="#0078d7" stroke-width="1"><circle cx="3.5" cy="3.5" r="3.5" stroke="none"/><circle cx="3.5" cy="3.5" r="3" fill="none"/></g></g><g transform="translate(-396 -290)"><g transform="translate(405 290)" fill="#59b4d9" stroke="#0078d7" stroke-width="1"><circle cx="3.5" cy="3.5" r="3.5" stroke="none"/><circle cx="3.5" cy="3.5" r="3" fill="none"/></g><g transform="translate(405 299)" fill="#59b4d9" stroke="#0078d7" stroke-width="1"><circle cx="3.5" cy="3.5" r="3.5" stroke="none"/><circle cx="3.5" cy="3.5" r="3" fill="none"/></g><g transform="translate(405 308)" fill="#59b4d9" stroke="#0078d7" stroke-width="1"><circle cx="3.5" cy="3.5" r="3.5" stroke="none"/><circle cx="3.5" cy="3.5" r="3" fill="none"/></g></g><g transform="translate(-387 -290)"><g transform="translate(405 290)" fill="#59b4d9" stroke="#0078d7" stroke-width="1"><circle cx="3.5" cy="3.5" r="3.5" stroke="none"/><circle cx="3.5" cy="3.5" r="3" fill="none"/></g><g transform="translate(405 299)" fill="#59b4d9" stroke="#0078d7" stroke-width="1"><circle cx="3.5" cy="3.5" r="3.5" stroke="none"/><circle cx="3.5" cy="3.5" r="3" fill="none"/></g><g transform="translate(405 308)" fill="#59b4d9" stroke="#0078d7" stroke-width="1"><circle cx="3.5" cy="3.5" r="3.5" stroke="none"/><circle cx="3.5" cy="3.5" r="3" fill="none"/></g></g><g transform="translate(-378 -290)"><g transform="translate(405 290)" fill="#59b4d9" stroke="#0078d7" stroke-width="1"><circle cx="3.5" cy="3.5" r="3.5" stroke="none"/><circle cx="3.5" cy="3.5" r="3" fill="none"/></g><g transform="translate(405 299)" fill="#59b4d9" stroke="#0078d7" stroke-width="1"><circle cx="3.5" cy="3.5" r="3.5" stroke="none"/><circle cx="3.5" cy="3.5" r="3" fill="none"/></g><g transform="translate(405 308)" fill="#59b4d9" stroke="#0078d7" stroke-width="1"><circle cx="3.5" cy="3.5" r="3.5" stroke="none"/><circle cx="3.5" cy="3.5" r="3" fill="none"/></g></g><g transform="translate(-369 -290)"><g transform="translate(405 290)" fill="#59b4d9" stroke="#0078d7" stroke-width="1"><circle cx="3.5" cy="3.5" r="3.5" stroke="none"/><circle cx="3.5" cy="3.5" r="3" fill="none"/></g><g transform="translate(405 299)" fill="#59b4d9" stroke="#0078d7" stroke-width="1"><circle cx="3.5" cy="3.5" r="3.5" stroke="none"/><circle cx="3.5" cy="3.5" r="3" fill="none"/></g><g transform="translate(405 308)" fill="#59b4d9" stroke="#0078d7" stroke-width="1"><circle cx="3.5" cy="3.5" r="3.5" stroke="none"/><circle cx="3.5" cy="3.5" r="3" fill="none"/></g></g><g transform="translate(-360 -290)"><g transform="translate(405 290)" fill="#59b4d9" stroke="#0078d7" stroke-width="1"><circle cx="3.5" cy="3.5" r="3.5" stroke="none"/><circle cx="3.5" cy="3.5" r="3" fill="none"/></g><g transform="translate(405 299)" fill="#59b4d9" stroke="#0078d7" stroke-width="1"><circle cx="3.5" cy="3.5" r="3.5" stroke="none"/><circle cx="3.5" cy="3.5" r="3" fill="none"/></g><g transform="translate(405 308)" fill="#59b4d9" stroke="#0078d7" stroke-width="1"><circle cx="3.5" cy="3.5" r="3.5" stroke="none"/><circle cx="3.5" cy="3.5" r="3" fill="none"/></g></g><g transform="translate(-351 -290)"><g transform="translate(405 290)" fill="#59b4d9" stroke="#0078d7" stroke-width="1"><circle cx="3.5" cy="3.5" r="3.5" stroke="none"/><circle cx="3.5" cy="3.5" r="3" fill="none"/></g><g transform="translate(405 299)" fill="#59b4d9" stroke="#0078d7" stroke-width="1"><circle cx="3.5" cy="3.5" r="3.5" stroke="none"/><circle cx="3.5" cy="3.5" r="3" fill="none"/></g><g transform="translate(405 308)" fill="#59b4d9" stroke="#0078d7" stroke-width="1"><circle cx="3.5" cy="3.5" r="3.5" stroke="none"/><circle cx="3.5" cy="3.5" r="3" fill="none"/></g></g><g transform="translate(-405 -263)"><g transform="translate(405 290)" fill="#59b4d9" stroke="#0078d7" stroke-width="1"><circle cx="3.5" cy="3.5" r="3.5" stroke="none"/><circle cx="3.5" cy="3.5" r="3" fill="none"/></g><g transform="translate(405 299)" fill="#59b4d9" stroke="#0078d7" stroke-width="1"><circle cx="3.5" cy="3.5" r="3.5" stroke="none"/><circle cx="3.5" cy="3.5" r="3" fill="none"/></g><g transform="translate(405 308)" fill="#59b4d9" stroke="#0078d7" stroke-width="1"><circle cx="3.5" cy="3.5" r="3.5" stroke="none"/><circle cx="3.5" cy="3.5" r="3" fill="none"/></g></g><g transform="translate(-396 -263)"><g transform="translate(405 290)" fill="#59b4d9" stroke="#0078d7" stroke-width="1"><circle cx="3.5" cy="3.5" r="3.5" stroke="none"/><circle cx="3.5" cy="3.5" r="3" fill="none"/></g><g transform="translate(405 299)" fill="#59b4d9" stroke="#0078d7" stroke-width="1"><circle cx="3.5" cy="3.5" r="3.5" stroke="none"/><circle cx="3.5" cy="3.5" r="3" fill="none"/></g><g transform="translate(405 308)" fill="#59b4d9" stroke="#0078d7" stroke-width="1"><circle cx="3.5" cy="3.5" r="3.5" stroke="none"/><circle cx="3.5" cy="3.5" r="3" fill="none"/></g></g><g transform="translate(-387 -263)"><g transform="translate(405 290)" fill="#59b4d9" stroke="#0078d7" stroke-width="1"><circle cx="3.5" cy="3.5" r="3.5" stroke="none"/><circle cx="3.5" cy="3.5" r="3" fill="none"/></g><g transform="translate(405 299)" fill="#59b4d9" stroke="#0078d7" stroke-width="1"><circle cx="3.5" cy="3.5" r="3.5" stroke="none"/><circle cx="3.5" cy="3.5" r="3" fill="none"/></g><g transform="translate(405 308)" fill="#59b4d9" stroke="#0078d7" stroke-width="1"><circle cx="3.5" cy="3.5" r="3.5" stroke="none"/><circle cx="3.5" cy="3.5" r="3" fill="none"/></g></g><g transform="translate(-378 -263)"><g transform="translate(405 290)" fill="#59b4d9" stroke="#0078d7" stroke-width="1"><circle cx="3.5" cy="3.5" r="3.5" stroke="none"/><circle cx="3.5" cy="3.5" r="3" fill="none"/></g><g transform="translate(405 299)" fill="#59b4d9" stroke="#0078d7" stroke-width="1"><circle cx="3.5" cy="3.5" r="3.5" stroke="none"/><circle cx="3.5" cy="3.5" r="3" fill="none"/></g><g transform="translate(405 308)" fill="#59b4d9" stroke="#0078d7" stroke-width="1"><circle cx="3.5" cy="3.5" r="3.5" stroke="none"/><circle cx="3.5" cy="3.5" r="3" fill="none"/></g></g><g transform="translate(-369 -263)"><g transform="translate(405 290)" fill="#59b4d9" stroke="#0078d7" stroke-width="1"><circle cx="3.5" cy="3.5" r="3.5" stroke="none"/><circle cx="3.5" cy="3.5" r="3" fill="none"/></g><g transform="translate(405 299)" fill="#59b4d9" stroke="#0078d7" stroke-width="1"><circle cx="3.5" cy="3.5" r="3.5" stroke="none"/><circle cx="3.5" cy="3.5" r="3" fill="none"/></g><g transform="translate(405 308)" fill="#59b4d9" stroke="#0078d7" stroke-width="1"><circle cx="3.5" cy="3.5" r="3.5" stroke="none"/><circle cx="3.5" cy="3.5" r="3" fill="none"/></g></g><g transform="translate(-360 -263)"><g transform="translate(405 290)" fill="#59b4d9" stroke="#0078d7" stroke-width="1"><circle cx="3.5" cy="3.5" r="3.5" stroke="none"/><circle cx="3.5" cy="3.5" r="3" fill="none"/></g><g transform="translate(405 299)" fill="#59b4d9" stroke="#0078d7" stroke-width="1"><circle cx="3.5" cy="3.5" r="3.5" stroke="none"/><circle cx="3.5" cy="3.5" r="3" fill="none"/></g><g transform="translate(405 308)" fill="#59b4d9" stroke="#0078d7" stroke-width="1"><circle cx="3.5" cy="3.5" r="3.5" stroke="none"/><circle cx="3.5" cy="3.5" r="3" fill="none"/></g></g><g transform="translate(-351 -263)"><g transform="translate(405 290)" fill="#59b4d9" stroke="#0078d7" stroke-width="1"><circle cx="3.5" cy="3.5" r="3.5" stroke="none"/><circle cx="3.5" cy="3.5" r="3" fill="none"/></g><g transform="translate(405 299)" fill="#59b4d9" stroke="#0078d7" stroke-width="1"><circle cx="3.5" cy="3.5" r="3.5" stroke="none"/><circle cx="3.5" cy="3.5" r="3" fill="none"/></g><g transform="translate(405 308)" fill="#59b4d9" stroke="#0078d7" stroke-width="1"><circle cx="3.5" cy="3.5" r="3.5" stroke="none"/><circle cx="3.5" cy="3.5" r="3" fill="none"/></g></g></g><path d="M-15.741,1.733H-17.2l-.422-1.32H-19.73l-.418,1.32H-21.6l2.16-5.934h1.585ZM-17.926-.613l-.637-1.995a2.6,2.6,0,0,1-.1-.534H-18.7a2.263,2.263,0,0,1-.1.517l-.646,2.011Zm6.009,2.193a2.586,2.586,0,0,1-1.279.257,2.163,2.163,0,0,1-1.581-.592,2.044,2.044,0,0,1-.6-1.527,2.251,2.251,0,0,1,.648-1.7A2.393,2.393,0,0,1-13-2.608a2.222,2.222,0,0,1,1.084.2V-1.3a1.491,1.491,0,0,0-.915-.306,1.205,1.205,0,0,0-.892.329,1.228,1.228,0,0,0-.329.908,1.208,1.208,0,0,0,.315.884,1.156,1.156,0,0,0,.865.321,1.726,1.726,0,0,0,.956-.306Zm3.418.1a1.933,1.933,0,0,1-.873.153q-1.382,0-1.382-1.436V-1.54h-.687V-2.5h.687v-.915l1.3-.372V-2.5H-8.5v.964H-9.45V.173q0,.662.526.662A.886.886,0,0,0-8.5.715Zm2.723.153a2.278,2.278,0,0,1-1.666-.594A2.153,2.153,0,0,1-8.048-.369a2.153,2.153,0,0,1,.629-1.645,2.377,2.377,0,0,1,1.7-.594,2.25,2.25,0,0,1,1.655.594,2.111,2.111,0,0,1,.6,1.57,2.241,2.241,0,0,1-.619,1.668A2.3,2.3,0,0,1-5.776,1.837Zm.033-3.443a.872.872,0,0,0-.72.319,1.405,1.405,0,0,0-.257.9q0,1.221.985,1.221.939,0,.939-1.254Q-4.795-1.606-5.743-1.606ZM.15-1.325A1.134,1.134,0,0,0-.4-1.453a.793.793,0,0,0-.666.312,1.363,1.363,0,0,0-.24.85V1.733H-2.614V-2.5h1.308v.786h.017A1.131,1.131,0,0,1-.173-2.579a.842.842,0,0,1,.323.05ZM4.562,1.733H3.225V-4.2H4.562Zm5.313,0h-1.3V-.622q0-.985-.7-.985a.7.7,0,0,0-.559.261.993.993,0,0,0-.219.662V1.733H5.782V-2.5H7.09v.67h.017a1.5,1.5,0,0,1,1.361-.774q1.407,0,1.407,1.746Zm.757-.112V.562a2.784,2.784,0,0,0,.643.29,2.134,2.134,0,0,0,.606.1,1.3,1.3,0,0,0,.548-.1.308.308,0,0,0,.2-.29A.268.268,0,0,0,12.54.355.846.846,0,0,0,12.306.21,2.653,2.653,0,0,0,11.994.1q-.17-.05-.327-.112a3.132,3.132,0,0,1-.445-.2A1.286,1.286,0,0,1,10.9-.473a1,1,0,0,1-.2-.335,1.338,1.338,0,0,1-.068-.451,1.161,1.161,0,0,1,.155-.612,1.268,1.268,0,0,1,.414-.42,1.891,1.891,0,0,1,.592-.24,3.086,3.086,0,0,1,.693-.077,3.846,3.846,0,0,1,.571.043,4.262,4.262,0,0,1,.571.126v1.01a2.064,2.064,0,0,0-.532-.217,2.243,2.243,0,0,0-.557-.072A1.233,1.233,0,0,0,12.3-1.7a.8.8,0,0,0-.2.066.369.369,0,0,0-.137.112.257.257,0,0,0-.05.155.287.287,0,0,0,.074.2.647.647,0,0,0,.194.143,1.92,1.92,0,0,0,.267.108l.292.1a3.793,3.793,0,0,1,.472.2,1.508,1.508,0,0,1,.362.252.991.991,0,0,1,.232.339,1.206,1.206,0,0,1,.081.463,1.209,1.209,0,0,1-.163.643,1.309,1.309,0,0,1-.435.435,1.971,1.971,0,0,1-.625.244,3.464,3.464,0,0,1-.735.077A3.787,3.787,0,0,1,10.632,1.621Zm6.567.062a1.933,1.933,0,0,1-.873.153q-1.382,0-1.382-1.436V-1.54h-.687V-2.5h.687v-.915l1.3-.372V-2.5H17.2v.964h-.952V.173q0,.662.526.662A.886.886,0,0,0,17.2.715Zm4.262.05H20.225V1.125h-.017a1.381,1.381,0,0,1-1.262.712,1.32,1.32,0,0,1-.97-.35,1.253,1.253,0,0,1-.354-.933q0-1.233,1.461-1.424l1.15-.153q0-.7-.753-.7a2.571,2.571,0,0,0-1.44.451v-.985a3.24,3.24,0,0,1,.747-.248,3.926,3.926,0,0,1,.863-.108A1.6,1.6,0,0,1,21.462-.8ZM20.233.012V-.274l-.77.1q-.637.083-.637.575a.475.475,0,0,0,.155.366A.6.6,0,0,0,19.4.91.774.774,0,0,0,20,.655.919.919,0,0,0,20.233.012Zm6.356,1.722h-1.3V-.622q0-.985-.7-.985a.7.7,0,0,0-.559.261.993.993,0,0,0-.219.662V1.733H22.5V-2.5H23.8v.67h.017a1.5,1.5,0,0,1,1.361-.774q1.407,0,1.407,1.746Zm4.246-.153a2.586,2.586,0,0,1-1.279.257,2.163,2.163,0,0,1-1.581-.592,2.044,2.044,0,0,1-.6-1.527,2.252,2.252,0,0,1,.648-1.7,2.393,2.393,0,0,1,1.732-.623,2.222,2.222,0,0,1,1.084.2V-1.3a1.491,1.491,0,0,0-.915-.306,1.205,1.205,0,0,0-.892.329,1.228,1.228,0,0,0-.329.908,1.208,1.208,0,0,0,.315.884,1.156,1.156,0,0,0,.865.321,1.726,1.726,0,0,0,.956-.306ZM35.5-.013H32.735Q32.8.91,33.9.91A2.27,2.27,0,0,0,35.127.578v.944a3.229,3.229,0,0,1-1.527.315,2.15,2.15,0,0,1-1.593-.569A2.15,2.15,0,0,1,31.439-.32a2.268,2.268,0,0,1,.612-1.672,2.04,2.04,0,0,1,1.506-.617,1.852,1.852,0,0,1,1.434.55A2.12,2.12,0,0,1,35.5-.564Zm-1.213-.8q0-.91-.737-.91a.7.7,0,0,0-.544.261,1.183,1.183,0,0,0-.279.65ZM36,1.621V.562a2.784,2.784,0,0,0,.643.29,2.134,2.134,0,0,0,.606.1,1.3,1.3,0,0,0,.548-.1.307.307,0,0,0,.2-.29.268.268,0,0,0-.091-.207A.847.847,0,0,0,37.674.21,2.653,2.653,0,0,0,37.361.1q-.17-.05-.327-.112a3.132,3.132,0,0,1-.445-.2,1.286,1.286,0,0,1-.323-.255,1,1,0,0,1-.2-.335A1.338,1.338,0,0,1,36-1.259a1.161,1.161,0,0,1,.155-.612,1.268,1.268,0,0,1,.414-.42,1.891,1.891,0,0,1,.592-.24,3.085,3.085,0,0,1,.693-.077,3.846,3.846,0,0,1,.571.043A4.263,4.263,0,0,1,39-2.438v1.01a2.064,2.064,0,0,0-.532-.217,2.243,2.243,0,0,0-.557-.072,1.233,1.233,0,0,0-.242.023.8.8,0,0,0-.2.066.369.369,0,0,0-.137.112.257.257,0,0,0-.05.155.287.287,0,0,0,.074.2.647.647,0,0,0,.194.143,1.92,1.92,0,0,0,.267.108l.292.1a3.793,3.793,0,0,1,.472.2,1.508,1.508,0,0,1,.362.252.991.991,0,0,1,.232.339,1.206,1.206,0,0,1,.081.463,1.209,1.209,0,0,1-.163.643,1.309,1.309,0,0,1-.435.435,1.97,1.97,0,0,1-.625.244,3.464,3.464,0,0,1-.735.077A3.787,3.787,0,0,1,36,1.621Z" transform="translate(48.365 35.354)" fill="#0078d7"/><g transform="translate(-448.387 -132.235)" clip-path="url(#i)"><g transform="translate(456.978 176.956)" clip-path="url(#j)"><path d="M14.606,34.575H12.852v-.552a1.8,1.8,0,0,1-.508.461,2.054,2.054,0,0,1-1.022.252A2.42,2.42,0,0,1,9.675,34.1,2.786,2.786,0,0,1,9.7,30.05a2.392,2.392,0,0,1,1.61-.605,2.256,2.256,0,0,1,.995.225,1.982,1.982,0,0,1,.551.423V26.532h1.754Zm-1.7-2.485a1.134,1.134,0,0,0-2-.734,1.123,1.123,0,0,0,0,1.467,1.07,1.07,0,0,0,.861.4,1.1,1.1,0,0,0,.805-.327A1.088,1.088,0,0,0,12.905,32.09Zm8.281,2.485H19.432v-.552a1.806,1.806,0,0,1-.508.461,2.054,2.054,0,0,1-1.022.252,2.42,2.42,0,0,1-1.647-.637,2.786,2.786,0,0,1,.021-4.048,2.392,2.392,0,0,1,1.61-.605,2.256,2.256,0,0,1,.995.225,1.981,1.981,0,0,1,.551.423v-.487h1.754Zm-1.7-2.485a1.134,1.134,0,0,0-2-.734,1.123,1.123,0,0,0,0,1.467,1.07,1.07,0,0,0,.861.4,1.1,1.1,0,0,0,.8-.327A1.088,1.088,0,0,0,19.485,32.09Zm8.479.005a2.55,2.55,0,0,1-.883,2.035,2.392,2.392,0,0,1-1.61.605,2.256,2.256,0,0,1-.995-.225,1.983,1.983,0,0,1-.551-.423V37.06H22.171V29.606h1.754v.552a1.643,1.643,0,0,1,.508-.461,2.054,2.054,0,0,1,1.022-.252,2.42,2.42,0,0,1,1.647.637A2.555,2.555,0,0,1,27.964,32.1ZM26.14,32.09a1.136,1.136,0,1,0-1.134,1.13,1.07,1.07,0,0,0,.861-.4A1.1,1.1,0,0,0,26.14,32.09Zm6.334-.862a1.718,1.718,0,0,0-.749-.177,1.067,1.067,0,0,0-1.123.707,2.019,2.019,0,0,0-.1.691v2.126H28.751V29.606h1.754v.814a1.913,1.913,0,0,1,.6-.626,1.975,1.975,0,0,1,1.027-.257q.139,0,.342.016Z" transform="translate(-4.909 -14.781)" fill="#0d2192" fill-rule="evenodd"/><path d="M39.524,45.247h1.766l.152,4.152-1.035.726L39.372,49.4Z" transform="translate(-22.276 -25.418)" fill="#0d2192"/><path d="M37.121,16.231a.131.131,0,0,1,.131.131v4.461a.131.131,0,0,1-.131.131H30.68a.131.131,0,0,1-.13-.131V16.361a.131.131,0,0,1,.13-.131Z" transform="translate(-17.263 -8.927)" fill="#0d2192"/><path d="M30.55,16.231h2.479v4.722H30.55Z" transform="translate(-17.263 -8.927)" fill="rgba(255,255,255,0.08)"/><path d="M36.251,26.463a.243.243,0,0,1,.243.243v.647a.243.243,0,0,1-.243.243H25.89a.243.243,0,0,1-.243-.243v-.647a.243.243,0,0,1,.243-.243Z" transform="translate(-14.476 -14.742)" fill="#0d2192"/><path d="M25.647,26.463H29v1.395H25.647Z" transform="translate(-14.476 -14.742)" fill="rgba(255,255,255,0.08)"/></g></g></g></g></g><g transform="translate(240.275 221.473)"><line x1="52" transform="translate(-0.275 4.527)" fill="none" stroke="#0078d7" stroke-linecap="round" stroke-width="1"/></g><g transform="translate(292 186)"><line x1="257.71" transform="translate(0 4.527)" fill="none" stroke="#0078d7" stroke-linecap="round" stroke-width="1"/><path d="M9,9.13H0L4.5,0,9,9.13Z" transform="translate(258.846) rotate(90)" fill="#0078d7"/></g><g transform="translate(296.527 190.5) rotate(90)"><line x2="35" transform="translate(0.5 4.527)" fill="none" stroke="#0078d7" stroke-linecap="round" stroke-width="1"/></g><text transform="translate(25 288)" fill="#0d2192" font-size="18" font-family="SegoeUI-Bold, Segoe UI" font-weight="700"><tspan x="0" y="0">POST</tspan></text><text transform="translate(25 306)" fill="#0078d4" font-size="12" font-family="SegoeUI, Segoe UI"><tspan x="0" y="0">http://localhost:3500/v1.0/actors/MyActors/A/method/update</tspan></text><text transform="translate(25 325)" font-size="12" font-family="Consolas"><tspan x="0" y="0">{ &quot;speed&quot;: 1 }</tspan></text><text transform="translate(344 139)" fill="#0d2192" font-size="18" font-family="SegoeUI-Bold, Segoe UI" font-weight="700"><tspan x="0" y="0">POST</tspan></text><text transform="translate(344 157)" fill="#0078d4" font-size="12" font-family="SegoeUI, Segoe UI"><tspan x="0" y="0">http://10.0.0.6:6004/update</tspan></text><text transform="translate(344 176)" font-size="12" font-family="Consolas"><tspan x="0" y="0">{ &quot;speed&quot;: 1 }</tspan></text></g></svg>